<svg width="198" height="49" fill="none" xmlns="http://www.w3.org/2000/svg"><path stroke="url(#paint0_linear)" stroke-width="3" d="M1.5 1.5h195v46H1.5z"/><path d="M13.743 36V14.862h4.424V36h-4.424zm7.94 0V14.862h3.691l9.873 13.77h.117v-13.77h4.234V36h-3.663l-9.887-13.843h-.132V36h-4.233zm27.202 0L41.78 14.862h4.951l4.834 16.582h.103l4.834-16.582h4.82L54.216 36h-5.332zm28.608 0H63.49V14.862h14.004v3.648h-9.58v5.097h9.038v3.399h-9.038v5.332h9.58V36zm6.665-6.02c.098.859.557 1.557 1.377 2.094.81.528 1.807.791 2.988.791 1.172 0 2.13-.254 2.871-.762.733-.498 1.1-1.137 1.1-1.918 0-.684-.274-1.236-.821-1.656-.547-.42-1.46-.771-2.74-1.054l-2.753-.601c-3.877-.83-5.816-2.798-5.816-5.903 0-1.934.757-3.501 2.27-4.702 1.505-1.182 3.443-1.773 5.816-1.773 2.442 0 4.395.581 5.86 1.743 1.445 1.153 2.187 2.69 2.226 4.614h-4.145c-.069-.888-.464-1.591-1.187-2.109-.713-.508-1.626-.762-2.74-.762-1.093 0-1.972.24-2.636.718-.674.479-1.01 1.109-1.01 1.89 0 .644.273 1.172.82 1.582.537.39 1.416.727 2.636 1.01l2.564.543c2.119.449 3.662 1.152 4.629 2.109.967.947 1.45 2.227 1.45 3.838 0 2.05-.772 3.677-2.314 4.878-1.543 1.21-3.628 1.816-6.255 1.816-2.55 0-4.576-.566-6.08-1.699-1.513-1.143-2.304-2.705-2.373-4.688h4.263zM104.77 36V18.51h-6.182v-3.648h16.802v3.648h-6.197V36h-4.423zm18.193 0V18.51h-6.182v-3.648h16.802v3.648h-6.196V36h-4.424zm13.066 0V14.862h4.424V36h-4.424zm30.323 0h-3.941V21.732h-.117l-5.742 14.063h-2.783l-5.743-14.063h-.117V36h-3.94V14.862h5.127l6.006 14.986h.117l6.006-14.986h5.127V36zm17.519 0h-14.004V14.862h14.004v3.648h-9.58v5.097h9.038v3.399h-9.038v5.332h9.58V36z" fill="#fff"/><defs><linearGradient id="paint0_linear" x1="0" y1="23.902" x2="198" y2="23.902" gradientUnits="userSpaceOnUse"><stop offset=".422" stop-color="#fff"/><stop offset="1" stop-color="#fff"/></linearGradient></defs></svg>