<svg width="151" height="37" fill="none" xmlns="http://www.w3.org/2000/svg"><path stroke="url(#paint0_linear)" stroke-width="3" d="M1.5 1.5h148v34H1.5z"/><path d="M10 26.715v-16.43h3.38v16.43H10zm6.067 0v-16.43h2.82l7.545 10.703h.09V10.285h3.234v16.43h-2.798l-7.556-10.76h-.1v10.76h-3.235zm20.786 0l-5.429-16.43h3.784l3.693 12.89h.079l3.694-12.89h3.682l-5.429 16.43h-4.074zm21.861 0H48.013v-16.43h10.7v2.835h-7.32v3.962H58.3v2.642h-6.907v4.145h7.32v2.846zm5.093-4.68c.074.668.425 1.211 1.052 1.629.62.41 1.38.615 2.283.615.896 0 1.627-.198 2.194-.593.56-.387.84-.884.84-1.491 0-.532-.21-.96-.627-1.287-.418-.326-1.116-.6-2.093-.82l-2.105-.466c-2.962-.646-4.444-2.175-4.444-4.59 0-1.502.579-2.72 1.736-3.654 1.149-.919 2.63-1.378 4.443-1.378 1.866 0 3.358.452 4.478 1.355 1.104.896 1.671 2.091 1.701 3.587h-3.168c-.052-.691-.354-1.238-.906-1.64-.545-.395-1.243-.592-2.094-.592-.835 0-1.507.186-2.014.558-.515.372-.773.861-.773 1.469 0 .5.21.91.627 1.23.41.303 1.082.565 2.015.785l1.959.422c1.62.349 2.798.895 3.537 1.64.739.735 1.108 1.73 1.108 2.982 0 1.595-.59 2.858-1.769 3.792C70.61 26.53 69.015 27 67.007 27c-1.947 0-3.495-.44-4.644-1.32-1.157-.889-1.761-2.104-1.814-3.645h3.258zm15.749 4.68V13.12h-4.724v-2.835h12.839v2.835h-4.735v13.595h-3.38zm13.902 0V13.12h-4.724v-2.835h12.839v2.835h-4.735v13.595h-3.38zm9.984 0v-16.43h3.381v16.43h-3.381zm23.171 0h-3.011v-11.09h-.09l-4.388 10.93h-2.126l-4.388-10.93h-.09v11.09h-3.011v-16.43h3.918l4.589 11.648h.09l4.589-11.648h3.918v16.43zm13.387 0h-10.701v-16.43H140v2.835h-7.32v3.962h6.906v2.642h-6.906v4.145H140v2.846z" fill="#333"/><defs><linearGradient id="paint0_linear" x1="0" y1="18.049" x2="151" y2="18.049" gradientUnits="userSpaceOnUse"><stop offset=".588" stop-color="#333"/><stop offset=".589" stop-color="#237BFF"/><stop offset=".76" stop-color="#237BFF"/></linearGradient></defs></svg>