<svg width="198" height="49" fill="none" xmlns="http://www.w3.org/2000/svg"><path stroke="url(#paint0_linear)" stroke-width="3" d="M1.5 1.5h195v46H1.5z"/><path d="M18.182 35h-4.424V13.862h4.424V35zm7.749 0h-4.234V13.862h3.692l9.873 13.77h.117v-13.77h4.233V35H35.95l-9.888-13.843h-.131V35zm28.3 0H48.9l-7.104-21.138h4.951l4.834 16.582h.103l4.834-16.582h4.819L54.23 35zm23.277-3.662V35H63.504V13.862h14.004v3.648h-9.58v5.097h9.038v3.399h-9.038v5.332h9.58zm2.402-2.358h4.263c.097.859.552 1.557 1.362 2.094.82.528 1.821.791 3.003.791 1.172 0 2.124-.249 2.856-.747.743-.508 1.114-1.152 1.114-1.933 0-.684-.274-1.236-.82-1.656-.547-.42-1.46-.771-2.74-1.054l-2.754-.601c-3.877-.83-5.815-2.798-5.815-5.903 0-1.934.752-3.496 2.256-4.688 1.513-1.191 3.457-1.787 5.83-1.787 2.441 0 4.39.581 5.845 1.743 1.455 1.153 2.202 2.69 2.24 4.614h-4.145c-.068-.888-.464-1.586-1.186-2.094-.713-.518-1.626-.777-2.74-.777-1.093 0-1.977.24-2.65.718-.665.479-.997 1.109-.997 1.89 0 .644.269 1.167.806 1.567.547.4 1.43.742 2.651 1.026l2.564.542c2.119.449 3.662 1.152 4.628 2.109.967.947 1.45 2.227 1.45 3.838 0 2.05-.77 3.681-2.314 4.893-1.543 1.2-3.628 1.801-6.255 1.801-2.548 0-4.58-.566-6.093-1.699-1.504-1.143-2.29-2.705-2.359-4.688zM109.207 35h-4.424V17.51h-6.181v-3.648h16.801v3.648h-6.196V35z" fill="#fff"/><path d="M127.4 35h-4.423V17.51h-6.182v-3.648h16.802v3.648H127.4V35zm13.067 0h-4.424V13.862h4.424V35zm25.898-21.138V35h-3.94V20.732h-.117l-5.743 14.063h-2.783l-5.742-14.063h-.117V35h-3.941V13.862h5.127l6.006 14.986h.117l6.006-14.986h5.127zm17.52 17.476V35h-14.004V13.862h14.004v3.648h-9.58v5.097h9.038v3.399h-9.038v5.332h9.58z" fill="#237BFF"/><defs><linearGradient id="paint0_linear" x1="0" y1="23.902" x2="198" y2="23.902" gradientUnits="userSpaceOnUse"><stop offset=".588" stop-color="#fff"/><stop offset=".589" stop-color="#237BFF"/></linearGradient></defs></svg>