<svg width="265" height="480" fill="none" xmlns="http://www.w3.org/2000/svg"><g opacity=".3"><path d="M798.904 857.466V597.394h-.135L697.805 547.43l-50.572 25.061V423.389l-101.122-49.941v.135l-50.55 24.903v-136.64l-101.122-49.805-50.391 24.903V87.999h-.158L242.926 38.216h-.158l-50.549 24.903V-73.543l-88.367-43.563-88.523 43.563V644.9L65.9 669.804l682.453 336.606 88.524-43.585v-86.698l-37.974-18.661z" fill="#E3E7F2"/><path d="M192.218-73.543V63.119l-37.816 18.66v494.949h-.135l-49.806 24.745-.609-.293V-29.8l88.366-43.743z" fill="#7FACFA"/><path d="M255.524 131.743v544.281h-.158l-100.964-49.941V81.779l101.122 49.964z" fill="url(#paint0_linear)" stroke="#D4E1F4"/><path d="M343.89 88l-88.366 43.743-101.122-49.964 37.817-18.66 50.549-24.903h.158L343.89 87.999z" fill="#E3E7F2"/><path d="M760.186 1000.64l-11.832 5.77L65.901 669.804l-50.572-24.903V-73.543l88.523-43.563 42.505 20.959-76.67 37.794V660.09l50.572 24.903 639.927 315.646z" fill="#fff"/><path d="M30.518-73.475v668.774H.162V-73.475h30.356z" fill="#fff"/><path d="M.162 595.276v49.558c0 5.769 3.29 11.065 8.474 13.612L741.639 1020c.203.11.451.07.653.16a15.18 15.18 0 006.04 1.42h.045c2.074-.05 4.124-.54 6.018-1.42.225-.09.45-.05.676-.16l88.456-43.63a13.194 13.194 0 001.668-1.285 14.93 14.93 0 002.681-2.073 42.123 42.123 0 003.043-4.891 15.46 15.46 0 00.653-3.2c.203-.698.338-1.442.429-2.163v-86.676c0-.18-.068-.338-.068-.519-.023-.428-.135-.811-.18-1.239a14.855 14.855 0 00-1.105-4.147c-.112-.27-.09-.563-.225-.834-.09-.18-.248-.293-.361-.45a14.966 14.966 0 00-3.177-4.125c-.293-.27-.654-.428-.969-.653a14.667 14.667 0 00-2.412-1.645l-29.455-14.514V597.349c0-.158-.068-.293-.068-.451a19.848 19.848 0 00-.225-1.667c-.158-1.217-.496-2.412-.947-3.561-.157-.361-.112-.766-.293-1.127-.112-.248-.338-.383-.473-.608a15.059 15.059 0 00-2.93-3.809c-1.171-.789-2.343-1.6-3.515-2.389l-101.145-49.896c-.315-.158-.631-.113-.946-.248a16.655 16.655 0 00-11.539 0c-.315.135-.653.113-.969.248l-28.576 14.108V423.412c0-.181-.068-.338-.068-.519-.022-.405-.113-.788-.18-1.217a14.551 14.551 0 00-1.127-4.236c-.113-.248-.09-.519-.203-.767-.09-.157-.248-.27-.315-.428a14.764 14.764 0 00-3.246-4.214c-.248-.203-.518-.338-.766-.519a14.946 14.946 0 00-2.547-1.735L552.85 359.881c-.316-.158-.654-.135-.969-.248a23.677 23.677 0 00-5.86-1.149 24.32 24.32 0 00-5.814 1.239c-.248.113-.519.09-.767.203l-28.621 14.108V261.869c0-.225-.09-.428-.09-.653 0-.226-.068-.428-.09-.654a14.994 14.994 0 00-1.307-4.913c-.068-.158-.046-.315-.136-.473-.045-.113-.157-.158-.203-.27a15.188 15.188 0 00-3.448-4.485l-.157-.113a14.959 14.959 0 00-3.065-2.073l-101.145-49.784c-.247-.112-.495-.09-.743-.202a17.347 17.347 0 00-11.449-.181c-.406.158-.834.135-1.239.338l-28.577 14.086V88.09c0-.27-.09-.541-.113-.812 0-.135-.045-.27-.067-.428a15.265 15.265 0 00-1.352-5.07c-.068-.158-.045-.316-.113-.474-.045-.09-.135-.158-.203-.248a14.618 14.618 0 00-3.38-4.394c-.203-.18-.474-.293-.676-.474a13.203 13.203 0 00-2.57-1.735L249.575 24.536c-.316-.157-.654-.135-.969-.248a23.724 23.724 0 00-5.725-1.171 22.45 22.45 0 00-5.724 1.149c-.338.135-.721.113-1.059.27L207.409 38.69V-73.475c0-.113-.045-.226-.045-.36a15.457 15.457 0 00-.248-1.736 14.67 14.67 0 00-.969-3.629c-.136-.338-.113-.698-.271-1.014-.112-.225-.315-.338-.428-.563a14.994 14.994 0 00-3.11-4.034c-.316-.27-.676-.428-.992-.676a14.671 14.671 0 00-2.411-1.645l-88.434-43.586c-.27-.135-.586-.113-.856-.226-3.764-1.397-7.91-1.419-11.651 0-.293.113-.609.091-.902.248L8.613-87.087c-.518.338-.991.72-1.442 1.127a12.189 12.189 0 00-4.35 4.349c-.405.45-.766.924-1.104 1.42-.158.293-.113.63-.248.924a14.453 14.453 0 00-.811 3.042 16.15 16.15 0 00-.383 2.75H.162v60.736c0 8.383 6.806 15.19 15.19 15.19 8.383 0 15.19-6.807 15.19-15.19v-36.307l58.076 28.667V601.18l.023.091v.54c0 5.77 3.29 11.066 8.474 13.613l50.504 24.925.023.023 101.099 49.873h.045l353.779 174.501.023.022 101.122 49.896.09.023 29.343 14.469v52.825L30.519 635.391V108.733c0-8.383-6.806-15.19-15.19-15.19-8.383 0-15.19 6.807-15.19 15.19l.023 486.543zm103.646-695.457l54.133 26.728-54.133 26.684-54.156-26.706 54.156-26.706zM242.836 55.074l66.776 32.97-54.155 26.706-66.799-32.948 54.178-26.729zM349.57 251.118c.315-.135.586-.293.878-.428l43.969-21.68 66.867 32.903-54.178 26.729-66.799-32.949 9.263-4.575zm196.586 139.344l66.776 32.971-54.133 26.706-66.798-32.971 54.155-26.706zm106.937 195.956l.135-.068 44.487-21.95 66.753 32.948-54.132 26.706-66.754-32.948 9.511-4.688zm168.528 366.918l-58.099 28.644v-52.848l58.099-28.667v52.871zm-197.15-337.823l70.765 34.931v225.569l-70.765-34.909v-225.59zm124.47 286.981l-3.606-1.781 53.502-26.39 3.606 1.78-53.502 26.391zm34.729-54.539L725.615 876.6V650.355l58.055-28.644v226.245zm-189.556-21.838l-.45-.225.45-.226v.451zM169.547 106.209l70.743 34.909v510.454l-70.743-34.909V106.209zm151.649 543.155V280.101l70.742 34.887v411.383l-70.742-34.887v-42.12zm151.671-207.788l70.743 34.932v324.707l-70.743-34.909v-324.73zm-30.379 309.743l-.361-.18.361-.18v.36zm-151.649-74.821l-2.051-1.014 2.051-1.015v2.029zm-151.671-74.799l-.496-.248.496-.248v.496zm463.42-24.227c-.158.067-.248.225-.406.315-.293.158-.631.248-.924.429a14.783 14.783 0 00-3.245 2.794c-.203.225-.338.496-.541.721a15.006 15.006 0 00-2.208 3.877c-.136.338-.293.653-.406 1.014a15.218 15.218 0 00-.766 4.485v200.711l-20.125 9.938V476.485l58.076-28.644v115.095l-29.455 14.536zM450.939 403.557c-.112.068-.18.18-.293.225-.315.181-.676.248-.991.451a14.827 14.827 0 00-3.291 2.862c-.18.203-.293.428-.473.654a15.416 15.416 0 00-2.254 3.921c-.135.361-.293.676-.405 1.037a14.9 14.9 0 00-.744 4.44v299.939l-20.193 9.984V314.988l58.145-28.666v102.721l-29.501 14.514zM299.29 242.082c-.135.068-.225.203-.36.293-.316.158-.631.248-.947.428a15.061 15.061 0 00-3.268 2.817c-.202.226-.338.474-.518.699a15.227 15.227 0 00-2.231 3.899c-.135.338-.293.654-.406 1.014a15.069 15.069 0 00-.743 4.485v384.925l-20.193 9.939V141.118l58.189-28.689v115.095l-29.523 14.558zM147.642 68.19c-.158.067-.226.203-.383.293-.293.157-.631.248-.924.428a14.995 14.995 0 00-3.268 2.817c-.203.225-.338.473-.519.699a15.221 15.221 0 00-2.231 3.898c-.135.339-.293.654-.405 1.015a15.04 15.04 0 00-.744 4.484v485.529l-20.17 9.984V-20.402l58.054-28.644V53.676l-29.41 14.514z" fill="#428DFF"/><path d="M15.351 63.164c6.13-.022 11.674-3.718 14.018-9.397a15.246 15.246 0 00-3.245-16.565l-2.276-1.825a11.474 11.474 0 00-2.727-1.375 9.7 9.7 0 00-2.727-.901c-.992-.18-2.006-.27-3.043-.293A15.888 15.888 0 004.58 37.202 14.974 14.974 0 00.297 50.95c1.014 5.003 4.507 9.172 9.285 10.997 1.803.79 3.786 1.195 5.77 1.217z" fill="#428DFF"/></g><defs><linearGradient id="paint0_linear" x1="31.114" y1="205.066" x2="388.559" y2="215.416" gradientUnits="userSpaceOnUse"><stop stop-color="#D4E1F4"/><stop offset=".172" stop-color="#D4E1F4"/><stop offset=".2" stop-color="#D4E1F4"/><stop offset=".2" stop-color="#DAE4F4"/><stop offset=".201" stop-color="#EBEBF4"/><stop offset=".201" stop-color="#F6F1F4"/><stop offset=".202" stop-color="#FDF4F4"/><stop offset=".205" stop-color="#FFF5F4"/><stop offset=".252" stop-color="#FFF5F4"/><stop offset=".26" stop-color="#D4E1F4"/><stop offset=".397" stop-color="#D4E1F4"/><stop offset=".42" stop-color="#D4E1F4"/><stop offset=".42" stop-color="#DAE4F4"/><stop offset=".421" stop-color="#EBEBF4"/><stop offset=".421" stop-color="#F6F1F4"/><stop offset=".422" stop-color="#FDF4F4"/><stop offset=".425" stop-color="#FFF5F4"/><stop offset=".489" stop-color="#FFF5F4"/><stop offset=".5" stop-color="#F9F2F4"/><stop offset=".5" stop-color="#E8EBF4"/><stop offset=".5" stop-color="#DDE5F4"/><stop offset=".5" stop-color="#D6E2F4"/><stop offset=".501" stop-color="#D4E1F4"/><stop offset=".706" stop-color="#D4E1F4"/><stop offset=".74" stop-color="#D4E1F4"/><stop offset=".741" stop-color="#FFF5F4"/><stop offset=".835" stop-color="#FFF5F4"/><stop offset=".85" stop-color="#FFF5F4"/><stop offset=".851" stop-color="#D4E1F4"/></linearGradient></defs></svg>