<svg width="60" height="60" fill="none" xmlns="http://www.w3.org/2000/svg"><path d="M59.994 29.768c-.729.947-1.86 1.305-2.812 1.915-1.098.703-2.252 1.31-3.37 1.976-.546.327-1.055.408-1.635.057-1.885-1.135-3.788-2.237-5.688-3.347-.447-.26-.64-.646-.664-1.15a15.613 15.613 0 00-3.234-8.838c-1.875-2.473-4.296-4.201-7.194-5.281-.938-.352-1.035-.673-.532-1.53 1.123-1.912 2.235-3.833 3.36-5.741.283-.48.308-.946.024-1.432a675.87 675.87 0 01-2.557-4.4c-.196-.337-.424-.675-.103-1.067.32-.391.69-.327 1.11-.228 4.57 1.073 8.7 3.046 12.316 6.029 5.567 4.595 9.03 10.478 10.472 17.542.201.987.386 1.985.396 3.003 0 .133-.01.277.117.378l-.006 2.114z" fill="#123A91"/><path d="M29.763.005c.804.586 1.11 1.53 1.607 2.328.844 1.351 1.616 2.747 2.426 4.119.272.46.204.895-.048 1.324-1.123 1.915-2.252 3.826-3.37 5.742a1.27 1.27 0 01-1.1.655 15.779 15.779 0 00-6.532 1.745c-3.68 1.907-6.19 4.834-7.647 8.69-.34.9-.709 1.047-1.54.554-1.89-1.124-3.777-2.256-5.674-3.37a1.482 1.482 0 00-1.64.015c-1.414.861-2.85 1.681-4.276 2.522-.332.196-.677.351-1.022.078C.6 24.134.603 23.772.7 23.358c1.066-4.545 3.016-8.655 5.976-12.281C11.278 5.435 17.19 1.973 24.287.507c.965-.2 1.943-.387 2.939-.39A.364.364 0 0027.543 0l2.22.005z" fill="#5FC2DF"/><path d="M0 30.237c.602-.788 1.531-1.104 2.332-1.6 1.289-.799 2.632-1.523 3.931-2.306.523-.316.991-.371 1.523-.053a722.904 722.904 0 005.742 3.379c.429.25.617.629.637 1.108.118 2.995 1.08 5.714 2.739 8.194.67 1.003 1.416 1.977 2.323 2.753 1.586 1.355 3.334 2.489 5.33 3.187.976.344 1.078.663.555 1.554-1.113 1.9-2.218 3.804-3.335 5.7-.294.5-.324.982-.026 1.487.874 1.474 1.736 2.962 2.622 4.427.195.327.316.636.06.966-.257.33-.563.377-.981.282-4.882-1.116-9.233-3.274-13.03-6.546-5.095-4.386-8.302-9.9-9.787-16.427a19.569 19.569 0 01-.518-3.516A.264.264 0 000 32.58v-2.343z" fill="#FF9D00"/><path d="M30.231 60c-.73-.516-1.028-1.344-1.465-2.065-.85-1.398-1.64-2.83-2.477-4.238-.3-.506-.315-.971-.012-1.481 1.132-1.911 2.25-3.83 3.372-5.749.25-.43.64-.605 1.116-.63a15.67 15.67 0 008.098-2.687c2.858-1.928 4.844-4.53 6.045-7.757.334-.9.685-1.027 1.538-.525 1.798 1.054 3.61 2.094 5.39 3.184.757.47 1.407.47 2.165 0 1.33-.838 2.712-1.605 4.066-2.413.316-.188.635-.325.971-.061.314.247.341.56.253.937-1.118 4.883-3.253 9.257-6.537 13.053-4.933 5.7-11.179 9.001-18.594 10.161-.567.09-1.157.034-1.702.266L30.23 60z" fill="#C8CED6"/><path d="M33.256 28.924c-1.481 0-2.962-.011-4.445.007-.493.006-.79-.234-.886-.664-.105-.476.05-.88.571-1.067a1.94 1.94 0 01.687-.099h8.187c.136-.007.273-.003.409.012.614.093.98.492.924.993-.063.573-.378.82-1.06.82l-4.387-.002zm0 3.979c-1.406 0-2.813.007-4.219 0-.718 0-1.11-.331-1.131-.902-.022-.57.314-.92.88-.92H37.8c.489 0 .771.235.855.698.088.481-.092.832-.56 1.02-.22.08-.453.118-.686.11h-4.157l.003-.006zm4.785-9.58c.601.136.703.586.594 1.076-.109.49-.488.669-.96.669h-6.892c-.66 0-1.323.013-1.985 0-.455-.013-.798-.25-.871-.703-.074-.453.018-.905.585-1.032l9.53-.01zm-9.524 13.358c-.572-.127-.67-.563-.586-1.032.085-.469.447-.703.93-.71h8.816c.468 0 .858.187.962.668.104.48 0 .937-.593 1.077l-9.529-.003zm-4.93-5.601c.43 0 .858.01 1.29 0 .492-.014.785.256.871.69.099.491-.08.92-.62 1.024a9.09 9.09 0 01-3.184.011c-.523-.085-.675-.5-.62-.964.057-.464.334-.771.86-.76.467.008.935 0 1.403 0zm-.051-2.156H22.13c-.434 0-.703-.225-.782-.634-.078-.409-.02-.83.44-1.03.174-.084.362-.135.555-.15a42.796 42.796 0 012.393 0c.449.014.854.194.992.667a.876.876 0 01-.316.99.784.784 0 01-.54.162c-.44-.01-.888-.005-1.336-.005zm-.025 7.858c-.427 0-.857.017-1.289 0-.56-.029-.9-.4-.896-.937.005-.538.359-.89.926-.901a61.163 61.163 0 012.57 0c.574.012.924.371.93.901.008.555-.35.915-.961.937-.418.017-.85 0-1.28 0zm1.642-13.459c.51.175.703.556.586 1.055-.117.468-.469.694-.957.691-.838 0-1.677.014-2.515-.006-.469-.01-.838-.213-.918-.718-.08-.505.043-.894.603-1.022h3.201z" fill="#93A6CC"/></svg>