<svg width="60" height="60" fill="none" xmlns="http://www.w3.org/2000/svg"><path d="M27.54 59.999c-.757-.118-1.514-.226-2.27-.352a30.44 30.44 0 01-7.413-2.194 28.354 28.354 0 01-6.005-3.561c-1.406-1.087-2.784-2.212-3.935-3.599-.691-.833-1.496-1.567-2.027-2.53-.503-.915-.37-1.488.521-2.005 2.5-1.448 5-2.894 7.5-4.337.406-.235.809-.47 1.212-.712.815-.48 1.282-.45 1.904.26a17.509 17.509 0 004.285 3.594 16.75 16.75 0 007.22 2.308c4.615.388 8.694-.927 12.304-3.79.827-.656 1.547-1.427 2.254-2.214.5-.558.982-.63 1.617-.25 1.568.94 3.164 1.832 4.738 2.757a147.49 147.49 0 003.867 2.187c1.351.745 1.466 1.346.549 2.602-1.448 1.98-3.18 3.676-5.078 5.228a29.613 29.613 0 01-11.534 5.746c-1.502.358-3.019.653-4.57.758-.19.015-.402-.09-.56.105h-.35c-.43-.188-.86-.144-1.29 0h-1.182a1.178 1.178 0 00-1.055 0h-.702z" fill="#FF9F00"/><path d="M0 27.349c.234-.68.234-1.403.34-2.104a30.123 30.123 0 013.317-9.759 29.44 29.44 0 015.518-7.233c3.57-3.454 7.766-5.796 12.505-7.213C23.384.53 25.13.238 26.887.003c.381-.05 1.001.47 1.113.952.059.266.088.538.087.811.005 3.17.005 6.342 0 9.514 0 1.212-.265 1.57-1.453 1.805-3.685.727-6.768 2.519-9.29 5.275a16.64 16.64 0 00-3.976 7.586c-.741 3.2-.552 6.365.486 9.478.327.98.129 1.452-.771 1.969-2.735 1.57-5.469 3.147-8.203 4.73-.153.087-.303.177-.459.26-.871.464-1.648.264-2.042-.627a27.477 27.477 0 01-1.91-6.279c-.176-.983-.317-1.973-.469-2.96v-5.169z" fill="#5FC2DF"/><path d="M60 32.516c-.117.5-.322.995-.335 1.496-.044 1.72-.476 3.363-1.049 4.949-.281.776-.44 1.587-.771 2.348-.202.483-.54.896-.973 1.189-.39.27-.82.175-1.212-.05a1337.637 1337.637 0 01-5.731-3.333c-.96-.559-1.919-1.12-2.882-1.672-1.102-.63-1.269-.995-.85-2.17.624-1.747.876-3.564.88-5.394a16.229 16.229 0 00-.937-5.616c-.351-.975-.175-1.41.73-1.93 2.914-1.693 5.83-3.384 8.745-5.073.82-.476 1.515-.242 1.885.628 1.277 3.001 2.12 6.12 2.383 9.38.01.117 0 .234.117.315v4.933z" fill="#C8CED6"/><path d="M30.469 59.998c.43-.144.859-.187 1.289 0h-1.29zm-2.227 0a1.18 1.18 0 011.055 0h-1.055z" fill="#AB80DC"/><path d="M32.11 59.998c.156-.194.368-.09.558-.104a.136.136 0 00.027.105h-.586z" fill="#B2E49F"/><path d="M31.895 8.813V1.776c0-.332.043-.663.13-.983a1.057 1.057 0 011.15-.78 30.464 30.464 0 0116.569 7.252c1.62 1.397 3.024 2.988 4.324 4.682.57.743.5 1.409-.32 1.907-1.481.89-2.993 1.734-4.49 2.6a871.53 871.53 0 00-4.29 2.5c-.938.55-1.372.433-2.237-.511-2.363-2.58-5.215-4.366-8.63-5.188-.376-.092-.758-.16-1.135-.245-.648-.147-.97-.518-.982-1.198-.018-.997 0-1.997 0-2.994l-.09-.005z" fill="#123A91"/></svg>