<svg width="140" height="140" fill="none" xmlns="http://www.w3.org/2000/svg"><path d="M136.846 68.365l-13.581-14.328a1.118 1.118 0 00-1.232-.274c-.43.168-.707.584-.707 1.043v7c0 .605-.492 1.097-1.098 1.097H95.427a4.667 4.667 0 01-4.226-2.752 23.59 23.59 0 00-11.455-11.459 4.662 4.662 0 01-2.752-4.13V19.76c0-.605.492-1.098 1.097-1.098h7.142c.452 0 .864-.273 1.036-.689.175-.419.08-.9-.245-1.22l-14-13.581a2.513 2.513 0 00-1.866-.828c-.71 0-1.389.3-1.866.828L54.033 16.727a1.119 1.119 0 00-.273 1.232c.167.43.583.707 1.042.707h7a1.1 1.1 0 011.098 1.098v24.801a4.66 4.66 0 01-2.753 4.226 23.59 23.59 0 00-11.458 11.455 4.662 4.662 0 01-4.131 2.752H19.756a1.099 1.099 0 01-1.097-1.097v-7.142a1.118 1.118 0 00-1.91-.791l-13.58 14a2.527 2.527 0 00-.828 1.866c0 .71.299 1.389.827 1.866l13.58 14.328a1.118 1.118 0 001.91-.839v-7a1.11 1.11 0 01.289-.838c.211-.226.503-.353.81-.353h24.801a4.666 4.666 0 014.225 2.752 23.569 23.569 0 0011.455 11.455 4.66 4.66 0 012.753 4.225v24.802c0 .605-.492 1.097-1.098 1.097h-7.142a1.118 1.118 0 00-.791 1.911l14 13.58a2.512 2.512 0 001.866.828c.711 0 1.39-.299 1.867-.828l14.328-13.58a1.125 1.125 0 00-.77-1.94h-7a1.096 1.096 0 01-1.097-1.097V95.427a4.673 4.673 0 012.753-4.226 23.59 23.59 0 0011.458-11.455 4.655 4.655 0 014.062-2.752h24.801c.606 0 1.098.492 1.098 1.097v7.142a1.117 1.117 0 001.91.791l13.58-14a2.533 2.533 0 00.802-1.826 2.511 2.511 0 00-.772-1.833z" fill="#D3DFF2"/><path d="M79.028 16.752c.321.32.416.802.244 1.221-.175.42-.583.693-1.035.69h7c.452 0 .864-.274 1.035-.69.175-.419.08-.9-.244-1.22l-14-13.581a2.513 2.513 0 00-1.866-.828c-.711 0-1.39.3-1.867.828l-1.611 1.495 12.344 12.085z" fill="#CAD9FC"/><path d="M76.998 44.565V19.763c0-.605.492-1.097 1.097-1.097h-7c-.605 0-1.097.492-1.097 1.097v24.802a4.66 4.66 0 002.752 4.226 23.59 23.59 0 0111.46 11.454 4.66 4.66 0 004.221 2.753h7a4.673 4.673 0 01-4.225-2.753A23.568 23.568 0 0079.75 48.791a4.67 4.67 0 01-2.752-4.226zm59.848 23.8l-13.581-14.328a1.118 1.118 0 00-1.232-.274c-.43.168-.707.584-.707 1.043v4.667l8.516 8.983a2.51 2.51 0 01.828 1.866c0 .711-.299 1.39-.828 1.867l-8.516 8.611v4.433a1.117 1.117 0 001.91.791l13.58-14a2.516 2.516 0 00.03-3.66z" fill="#D3DFF2"/><path d="M84.209 79.75A23.56 23.56 0 0172.75 91.205a4.66 4.66 0 00-2.752 4.225v24.802c0 .605.492 1.097 1.097 1.097h7a1.098 1.098 0 01-1.097-1.097V95.43a4.667 4.667 0 012.752-4.225A23.583 23.583 0 0091.205 79.75a4.66 4.66 0 014.225-2.752h-7a4.661 4.661 0 00-4.221 2.752z" fill="#B7C9ED"/><path d="M85.186 121.329h-7c.46 0 .875.278 1.043.708.167.426.062.915-.274 1.232l-12.647 12.064 1.586 1.564a2.515 2.515 0 001.867.827c.71 0 1.389-.299 1.866-.827l14.328-13.581a1.12 1.12 0 00.332-1.268 1.111 1.111 0 00-1.101-.719z" fill="#CAD9FC"/><path d="M101.985 47.34l28.371-28.372a.44.44 0 01.605 0l5.976 6.698a.42.42 0 00.725-.303V4.666a2.333 2.333 0 00-2.333-2.333h-20.58a.421.421 0 00-.303.726l6.581 5.975c.16.168.16.437 0 .605L92.656 38.01a2.334 2.334 0 000 3.31l6.019 6.02a2.338 2.338 0 001.655.692c.623 0 1.218-.248 1.655-.692zM47.34 38.01L18.969 9.64a.44.44 0 010-.606l6.697-5.975a.418.418 0 00.12-.554.418.418 0 00-.54-.172H4.667a2.333 2.333 0 00-2.333 2.334v20.58a.421.421 0 00.725.303l5.976-6.581a.44.44 0 01.605 0l28.371 28.37a2.338 2.338 0 001.655.693 2.32 2.32 0 001.656-.692l6.019-6.02a2.323 2.323 0 000-3.31z" fill="#D3DFF2"/><path d="M38.01 92.656L9.64 121.027a.442.442 0 01-.606 0l-5.975-6.581a.421.421 0 00-.726.303v20.576a2.333 2.333 0 002.334 2.334h20.58a.421.421 0 00.303-.726l-6.581-5.975a.44.44 0 010-.605l28.37-28.371a2.322 2.322 0 000-3.31l-6.018-6.02a2.337 2.337 0 00-1.656-.692 2.335 2.335 0 00-1.655.696z" fill="#CAD9FC"/><path d="M92.652 101.985l28.371 28.371a.44.44 0 010 .605l-6.58 5.976a.42.42 0 00.302.725h20.58a2.336 2.336 0 002.334-2.333v-20.576a.43.43 0 00-.259-.402.422.422 0 00-.467.099l-5.975 6.58a.44.44 0 01-.605 0l-28.371-28.37a2.34 2.34 0 00-1.656-.693 2.32 2.32 0 00-1.655.692l-6.019 6.02a2.325 2.325 0 000 3.306z" fill="#D3DFF2"/><path d="M9.333 135.329v-14.185a.395.395 0 01-.303-.117l-5.975-6.581a.421.421 0 00-.725.303v20.576a2.333 2.333 0 002.333 2.334h7.003a2.328 2.328 0 01-2.333-2.33zm7.397-49.37a1.12 1.12 0 001.232.273c.43-.168.708-.583.708-1.043v-4.666l-8.517-8.888a2.513 2.513 0 01-.827-1.867c0-.71.302-1.389.827-1.867L18.67 59.2v-4.433a1.118 1.118 0 00-1.91-.791l-13.581 14a2.527 2.527 0 00-.828 1.866c0 .71.3 1.389.828 1.867l13.551 14.25zM3.055 25.666l5.975-6.697c.08-.08.19-.124.303-.117V4.667a2.33 2.33 0 012.333-2.334h-7a2.333 2.333 0 00-2.333 2.334v20.58a.418.418 0 00.172.54.415.415 0 00.55-.121z" fill="#fff"/><path d="M16.03 121.027c.172.16.438.16.605 0l26.53-26.53-1.84-1.841a2.338 2.338 0 00-1.656-.693c-.623 0-1.218.248-1.655.693L13 117.669l3.03 3.358z" fill="#D3DFF2"/><path d="M38.01 47.34a2.338 2.338 0 001.655.692c.624 0 1.218-.248 1.656-.693l1.84-1.84-26.53-26.53a.44.44 0 00-.604 0l-3.034 3.357L38.01 47.34z" fill="#fff"/><path d="M23.132 35.808l3.3-3.3 13.197 13.198-3.3 3.3-13.197-13.198z" fill="#fff"/><path d="M4.667 139.995h20.58a2.754 2.754 0 001.866-4.666l-5.086-4.667 26.971-27.043a4.663 4.663 0 000-6.581l-6.04-6.04a4.67 4.67 0 00-6.581 0l-27.044 26.97-4.666-5.18a2.785 2.785 0 00-2.968-.529A2.77 2.77 0 000 114.745v20.577a4.668 4.668 0 004.667 4.673zm0-20.299l2.73 2.986a2.747 2.747 0 003.894 0l28.37-28.397 6.042 6.041-28.371 28.371a2.697 2.697 0 00-.817 1.962c0 1.633 1.097 2.333 3.78 4.666H4.668v-15.629zm130.662-6.814l-4.667 5.086-27.04-26.97a4.67 4.67 0 00-6.58 0L91 97.037a4.663 4.663 0 000 6.581l26.971 27.043-5.155 4.667a2.754 2.754 0 001.936 4.67h20.58a4.666 4.666 0 004.666-4.666v-20.577a2.757 2.757 0 00-1.728-2.446 2.75 2.75 0 00-2.942.572zm0 22.447h-15.633l2.964-2.705a2.777 2.777 0 000-3.919l-28.37-28.371 6.04-6.041 28.397 28.396c.517.54 1.235.842 1.983.842.747 0 1.465-.302 1.983-.842l2.636-2.986v15.626zM70.278 67.664c-4.2-.536-4.947-.98-4.947-2.942 0-3.357 7.7-3.988 9.636-.911a2.351 2.351 0 104.083-2.334 9.65 9.65 0 00-6.719-4.108v-1.375a2.333 2.333 0 10-4.666 0v1.422a7.787 7.787 0 00-7 7.328c0 6.438 5.672 7.138 9.052 7.558 4.2.536 4.947.98 4.947 2.938 0 2.545-2.916 2.917-4.666 2.917a9.777 9.777 0 01-5.345-1.167 2.343 2.343 0 00-3.919 1.054c-.215.805.015 1.67.605 2.264a10.552 10.552 0 006.322 2.333v1.352a2.33 2.33 0 002.333 2.334 2.335 2.335 0 002.333-2.334v-1.352a7.464 7.464 0 007-7.397c.004-6.439-5.665-7.135-9.049-7.58z" fill="#237BFF"/><path d="M124.946 52.43a3.454 3.454 0 00-5.95 2.332v5.903H95.43a2.333 2.333 0 01-2.1-1.375 25.677 25.677 0 00-12.625-12.625 2.327 2.327 0 01-1.374-2.1V21h5.902a3.452 3.452 0 002.333-5.928L73.849 1.633a4.862 4.862 0 00-3.46-1.586 4.843 4.843 0 00-3.54 1.4L52.429 15.05A3.454 3.454 0 0054.762 21h5.903v23.565a2.333 2.333 0 01-1.375 2.1A25.677 25.677 0 0046.665 59.29a2.327 2.327 0 01-2.1 1.375H21v-5.903a3.453 3.453 0 00-5.928-2.33L1.633 66.153a4.832 4.832 0 00-1.597 3.46 4.833 4.833 0 001.411 3.54L15.05 87.478a3.45 3.45 0 003.758.828 3.455 3.455 0 002.195-3.165V79.33h23.566c.908.01 1.728.547 2.1 1.374A25.678 25.678 0 0059.294 93.33a2.327 2.327 0 011.374 2.1v23.566h-5.902a3.453 3.453 0 00-2.33 5.928l13.788 13.438a4.86 4.86 0 003.46 1.586 4.84 4.84 0 003.54-1.4l14.328-13.602a3.455 3.455 0 00-2.333-5.95H79.33V95.43a2.333 2.333 0 011.374-2.1A25.677 25.677 0 0093.33 80.705a2.327 2.327 0 012.1-1.374h23.566v5.902a3.462 3.462 0 002.188 3.14 3.451 3.451 0 003.74-.806l13.438-13.814a4.864 4.864 0 001.637-3.54 4.844 4.844 0 00-1.498-3.602l-13.555-14.182zm-1.283 29.817v-4.152a3.43 3.43 0 00-3.431-3.43H95.43a7 7 0 00-6.347 4.104A21 21 0 0178.77 89.083a7 7 0 00-4.105 6.347v24.802a3.43 3.43 0 003.43 3.431h4.037l-12.133 11.502a.87.87 0 00-.234.16l-12.038-11.666h4.153a3.425 3.425 0 003.456-3.43V95.427a7 7 0 00-4.105-6.348 21 21 0 01-10.314-10.313 7 7 0 00-6.347-4.105H19.767a3.43 3.43 0 00-3.43 3.43v4.036L4.83 69.997a.858.858 0 00-.16-.233l11.666-12.038v4.153a3.432 3.432 0 003.43 3.456H44.57a7 7 0 006.347-4.105A21 21 0 0161.23 50.916a7 7 0 004.105-6.347V19.767a3.43 3.43 0 00-3.43-3.43h-4.037L69.998 4.83a.795.795 0 00.233-.164L82.27 16.333h-4.178a3.432 3.432 0 00-3.43 3.43v24.802a7 7 0 004.105 6.348A21 21 0 0189.08 61.226a7 7 0 006.348 4.105h24.801a3.43 3.43 0 003.431-3.43v-4.036l11.506 12.133a.8.8 0 00.164.233l-11.666 12.016z" fill="#237BFF"/><path d="M135.329 0h-20.58a2.757 2.757 0 00-2.574 1.75 2.757 2.757 0 00.704 3.033l5.085 4.667-26.97 26.927a4.663 4.663 0 000 6.58l6.04 6.041a4.67 4.67 0 006.581 0l27.04-26.97 4.667 5.18a2.784 2.784 0 002.967.529 2.769 2.769 0 001.699-2.487V4.667A4.655 4.655 0 00135.329 0zm0 20.3l-2.731-2.986a2.743 2.743 0 00-1.946-.806 2.76 2.76 0 00-1.947.806L100.334 45.71l-6.041-6.041 28.371-28.37a2.695 2.695 0 00.816-1.962c0-1.634-1.097-2.334-3.78-4.667h15.633V20.3h-.004z" fill="#237BFF"/><path d="M31.452 43.07a2.333 2.333 0 110-4.666 2.333 2.333 0 010 4.667z" fill="#428DFF"/><path d="M4.783 27.113l4.55-5.086 13.766 13.767a2.33 2.33 0 003.168-.124c.864-.86.916-2.242.124-3.169L11.294 17.315a2.755 2.755 0 00-3.966 0L4.667 20.3V4.667h15.632c-3.007 2.73-3.78 3.124-3.78 4.666-.007.733.277 1.44.795 1.961L45.71 39.665l-6.041 6.041a2.334 2.334 0 00-3.168.124 2.333 2.333 0 00-.124 3.168 4.67 4.67 0 006.58 0l6.041-6.04a4.663 4.663 0 000-6.581L22.028 9.333l5.158-4.666a2.755 2.755 0 00.565-2.968A2.756 2.756 0 0025.251 0H4.666A4.666 4.666 0 000 4.667v20.58a2.749 2.749 0 001.75 2.57 2.758 2.758 0 003.033-.704z" fill="#237BFF"/></svg>