<svg width="140" height="140" fill="none" xmlns="http://www.w3.org/2000/svg"><path d="M48.977 114.339a23.337 23.337 0 01-8.109 17.663 23.332 23.332 0 01-18.666 5.391c-11.353-1.775-19.724-11.556-19.724-23.05 0-11.495 8.368-21.276 19.724-23.051a23.318 23.318 0 0118.666 5.392 23.315 23.315 0 018.109 17.655z" fill="#B7C9ED"/><path d="M41.98 114.339c-.004 11.513-8.404 21.301-19.778 23.051-11.353-1.775-19.724-11.556-19.724-23.051 0-11.494 8.368-21.275 19.724-23.05 11.374 1.75 19.774 11.537 19.778 23.05z" fill="#D3DFF2"/><path d="M17.001 121.339a2.333 2.333 0 000 3.31 10.559 10.559 0 006.32 2.333v1.356a2.332 2.332 0 104.664 0v-1.353a7.465 7.465 0 006.997-7.396c0-6.438-5.667-7.142-9.049-7.558-4.198-.535-4.945-.98-4.945-2.941 0-3.336 7.624-4.014 9.632-.912a2.35 2.35 0 104.082-2.333 9.63 9.63 0 00-6.717-4.13v-1.378a2.333 2.333 0 10-4.665 0v1.425a7.788 7.788 0 00-6.997 7.324c0 6.438 5.667 7.141 9.05 7.561 4.197.536 4.945.98 4.945 2.938 0 2.545-2.916 2.916-4.665 2.916a9.54 9.54 0 01-5.343-1.166 2.337 2.337 0 00-1.654-.693 2.365 2.365 0 00-1.655.697z" fill="#237BFF"/><path d="M4.22 125.793a2.333 2.333 0 110-4.666 2.333 2.333 0 010 4.666z" fill="#428DFF"/><path d="M65.817 70.662l14.647 8.377a2.34 2.34 0 002.916-.488l36.618-41.206h17.61a2.333 2.333 0 000-4.666h-18.659c-.671 0-1.309.288-1.75.794l-36.06 40.572-14.673-8.4a2.329 2.329 0 00-2.937.514L40.394 93.341a24.996 24.996 0 00-11.662-4.503l27.99-45.915 18.983 12.646a2.33 2.33 0 003.218-.63l28.874-42.209 9.705 7.769a2.328 2.328 0 002.985 0l18.659-16.332a2.33 2.33 0 00.208-3.358 2.327 2.327 0 00-3.288-.207L118.945 15.65 108.73 7.532a2.325 2.325 0 00-1.804-.481 2.338 2.338 0 00-1.578.995L76.331 50.462c-19.942-13.3-19.359-13.113-20.36-13.113h-9.327a2.333 2.333 0 000 4.666h5.179L23.32 88.791a25.66 25.66 0 00-18.659 10.85V88.673h4.665a2.333 2.333 0 000-4.666H4.661v-4.666h4.665a2.333 2.333 0 000-4.666H4.661v-4.667h4.665a2.333 2.333 0 000-4.666H4.661v-4.666h4.665a2.333 2.333 0 000-4.667H4.661v-4.666h4.665a2.335 2.335 0 002.332-2.333 2.335 2.335 0 00-2.332-2.333H4.661V42.01h4.665a2.333 2.333 0 000-4.666H4.661V32.68h4.665a2.335 2.335 0 002.332-2.333 2.335 2.335 0 00-2.332-2.334H4.661v-4.666h4.665a2.333 2.333 0 000-4.666H4.661V7.97l5.343 5.366a2.342 2.342 0 103.313-3.314L3.987.689A2.331 2.331 0 000 2.348v111.991a2.332 2.332 0 104.665 0c-.018-9.989 7-18.61 16.782-20.612 9.785-2.001 19.622 3.168 23.528 12.362 3.903 9.194.795 19.868-7.438 25.519a20.988 20.988 0 01-26.484-2.224 2.33 2.33 0 00-3.218 0 2.338 2.338 0 000 3.383A25.646 25.646 0 0025.653 140c119.98 0 112.166 0 112.84-.186a2.335 2.335 0 001.261-3.033c-.255-.605.325 0-9.817-10.102a2.342 2.342 0 10-3.313 3.314l5.364 5.344h-10.707v-4.666a2.335 2.335 0 00-2.332-2.333 2.335 2.335 0 00-2.333 2.333v4.666h-4.664v-4.666a2.333 2.333 0 10-4.665 0v4.666h-4.665v-4.666a2.333 2.333 0 10-4.665 0v4.666h-4.665v-4.666a2.332 2.332 0 10-4.665 0v4.666h-4.664v-4.666a2.332 2.332 0 10-4.665 0v4.666h-4.665v-4.666a2.335 2.335 0 00-2.332-2.333 2.335 2.335 0 00-2.333 2.333v4.666h-4.664v-4.666a2.332 2.332 0 10-4.665 0v4.666h-4.665v-4.666a2.335 2.335 0 00-2.332-2.333 2.335 2.335 0 00-2.333 2.333v4.666H40.347a25.666 25.666 0 0010.962-18.665h32.654c.62.004 1.217-.24 1.658-.674l12.34-12.366v3.711a2.33 2.33 0 002.332 2.333 2.335 2.335 0 002.333-2.333v-6.999h20.991a2.338 2.338 0 002.333-1.633l13.994-44.33a2.335 2.335 0 00-1.574-2.734 2.334 2.334 0 00-2.858 1.334l-13.6 42.693H100.29a2.323 2.323 0 00-1.655.678l-15.627 15.654H51.309a25.682 25.682 0 00-7.23-15.61l21.738-25.734z" fill="#237BFF"/><path d="M18.656 37.345a2.333 2.333 0 000 4.666h4.664a2.33 2.33 0 002.333-2.333 2.33 2.33 0 00-2.333-2.333h-4.664zm13.994 0a2.333 2.333 0 000 4.666h4.665a2.333 2.333 0 000-4.666H32.65zm67.64 76.994a2.33 2.33 0 00-2.333 2.333v4.667a2.333 2.333 0 004.665 0v-4.667a2.333 2.333 0 00-2.332-2.333z" fill="#237BFF"/></svg>