<svg width="60" height="60" fill="none" xmlns="http://www.w3.org/2000/svg"><path d="M0 32.503v-5.17c.094-.058.11-.153.117-.252.07-1.074.255-2.13.474-3.182 1.145-5.538 3.636-10.39 7.49-14.518C12.1 5.077 16.998 2.225 22.697.766 24.152.394 25.62.038 27.144.073c.733.016 1.02.28 1.022 1.03.007 3.524 0 7.049.005 10.572 0 .228-.1.386-.211.576-.285.491-.692.692-1.234.753-.384.044-.762.168-1.137.275-3.42.976-6.293 2.797-8.589 5.53-2.35 2.8-3.667 6.031-3.958 9.655-.133 1.652-.05 3.317.317 4.958 1.043 4.648 3.529 8.295 7.524 10.879 2.898 1.875 6.093 2.747 9.554 2.683 2.088-.038 4.11-.38 6.035-1.185 5.192-2.173 8.605-5.96 10.203-11.365.171-.58.265-1.18.433-1.76.163-.565.549-.853 1.118-.854 3.58-.009 7.162-.012 10.742-.006.737 0 1.113.444 1.017 1.18-.113.873-.225 1.749-.398 2.61-1.355 6.776-4.585 12.487-9.8 17.032-4.326 3.769-9.355 6.074-15.012 7.016-.787.13-1.592.13-2.364.348h-4.932c-.06-.093-.157-.108-.255-.114-.879-.053-1.743-.2-2.607-.356A29.533 29.533 0 0113.4 55.005c-1.987-1.322-3.812-2.835-5.4-4.638-.696-.79-1.418-1.554-2.045-2.4C2.82 43.744.901 39.027.205 33.805c-.058-.432.048-.901-.206-1.302z" fill="#fff"/><path d="M53.563 27.89c-1.624 0-3.249.002-4.873 0-1.109 0-1.476-.333-1.703-1.425-.572-2.74-1.696-5.222-3.478-7.4-2.309-2.82-5.188-4.769-8.7-5.765a11.869 11.869 0 00-1.479-.337c-.8-.12-1.239-.63-1.24-1.453-.008-3.408-.002-6.815-.007-10.222 0-.262.056-.508.155-.74.177-.416.493-.59.931-.54C39.22.7 44.61 2.951 49.311 6.842c4.513 3.735 7.597 8.428 9.398 13.982a29.851 29.851 0 011.258 5.955c.071.65-.383 1.103-1.178 1.12-.958.018-1.918.004-2.877.004h-2.349v-.013z" fill="#FF9D00"/><path d="M42.392 29.836c.126 6.482-5.254 12.298-12.227 12.28-6.913-.018-12.244-5.429-12.27-12.266-.027-7.116 5.839-12.33 12.38-12.28 6.531.05 12.267 5.59 12.117 12.266zm-9.572-4.832v-.01h-2.93c-.83.003-1.235.3-1.24.909-.006.606.413.927 1.227.928 1.972.002 3.945 0 5.918 0 .215 0 .429.01.636-.068.37-.14.618-.472.62-.844a.899.899 0 00-.662-.868 2.026 2.026 0 00-.521-.046c-1.016-.004-2.032-.001-3.048-.001zm.006 5.725v.01h1.88c.489 0 .978.018 1.467-.01a.913.913 0 00.878-.924c-.009-.467-.357-.808-.876-.849-.175-.014-.352-.007-.528-.007-1.683.004-3.366.004-5.048.017-.409.003-.817-.116-1.227-.009-.485.125-.746.45-.721.927.025.507.4.836 1.006.843 1.056.01 2.112.002 3.17.002zm.006 3.913v-.016c1.115 0 2.229.012 3.343-.005.51-.009.858-.375.872-.846.013-.455-.345-.857-.825-.911-.155-.018-.312-.01-.468-.01h-4.985c-.411 0-.822-.015-1.232.008-.584.032-.949.467-.883 1.014.054.453.409.754.954.76 1.074.014 2.148.006 3.224.006zm-7.966-7.818v-.009c.273 0 .55.03.82-.005.495-.066.839-.462.833-.91-.006-.489-.372-.867-.906-.892-.469-.02-.94-.018-1.408.002-.563.023-.916.356-.944.849-.03.511.324.9.9.961.233.025.47.004.705.004zm.04 3.909c.252 0 .507.018.758-.004.493-.046.847-.42.855-.876a.896.896 0 00-.765-.897 5.493 5.493 0 00-1.744.001c-.497.079-.767.424-.759.887.008.476.338.84.837.886.272.024.545.003.818.003zm-.014 3.9v-.008c.253 0 .507.014.76-.002.473-.03.814-.36.854-.803.038-.42-.28-.895-.717-.931a11.5 11.5 0 00-1.809-.005c-.452.035-.745.464-.727.918a.856.856 0 00.821.828c.271.02.545.003.818.003z" fill="#5FC2DF"/><path d="M32.82 25.004c1.016 0 2.032-.003 3.048.002.174.001.356.001.521.046a.901.901 0 01.662.868c-.002.371-.25.704-.62.844-.207.078-.422.068-.636.068-1.973 0-3.946.002-5.919 0-.813-.001-1.233-.322-1.227-.928.006-.609.41-.906 1.242-.909.977-.002 1.952 0 2.93 0v.009zm.006 5.726c-1.057 0-2.113.007-3.17-.005-.607-.007-.98-.335-1.007-.842-.024-.477.236-.802.721-.927.412-.106.819.012 1.227.008 1.683-.013 3.366-.013 5.049-.016.176 0 .353-.007.528.007.52.041.867.382.876.848.01.48-.36.894-.878.925-.487.03-.978.01-1.468.01h-1.879l.001-.009zm.006 3.912c-1.076 0-2.15.008-3.226-.004-.545-.006-.9-.306-.953-.76-.066-.546.3-.981.883-1.014.41-.023.82-.007 1.232-.007h4.985c.156 0 .314-.008.468.01.48.053.836.455.825.91-.013.471-.362.838-.872.846-1.114.018-2.229.006-3.343.006l.001.013zm-7.966-7.819c-.235 0-.472.022-.704-.003-.575-.061-.928-.45-.9-.961.028-.494.381-.826.944-.85.468-.02.94-.022 1.408 0 .534.024.9.402.906.891.006.448-.338.845-.833.91-.27.035-.546.005-.82.005l-.001.008zm.04 3.909c-.273 0-.548.022-.818-.004-.499-.047-.829-.41-.837-.886-.008-.462.262-.807.759-.887a5.532 5.532 0 011.743-.001.897.897 0 01.766.896c-.008.456-.362.83-.855.877-.25.024-.505.005-.758.005zm-.014 3.901c-.273 0-.548.017-.819-.003-.47-.034-.803-.382-.82-.829-.018-.453.275-.882.726-.917.6-.047 1.21-.047 1.809.005.438.037.755.512.717.931-.04.442-.382.772-.855.803-.252.016-.506.002-.76.002a.022.022 0 01.002.008z" fill="#FEFEFE"/></svg>