<svg width="250" height="480" fill="none" xmlns="http://www.w3.org/2000/svg"><path d="M783.904 857.466V597.394h-.135L682.805 547.43l-50.572 25.061V423.389l-101.122-49.941v.135l-50.55 24.903v-136.64l-101.122-49.805-50.391 24.903V87.999h-.158L227.926 38.216h-.158l-50.549 24.903V-73.543l-88.366-43.563L.329-73.543V644.9L50.9 669.804l682.453 336.606 88.524-43.585v-86.698l-37.974-18.661z" fill="#E3E7F2"/><path d="M177.218-73.543V63.119l-37.816 18.66v494.949h-.135l-49.806 24.745-.608-.293V-29.8l88.365-43.743z" fill="#7FACFA"/><path d="M240.524 131.743v544.281h-.158l-100.964-49.941V81.779l101.122 49.964z" fill="url(#paint0_linear)" stroke="#D4E1F4"/><path d="M328.89 88l-88.366 43.743-101.122-49.964 37.817-18.66 50.549-24.903h.158L328.89 87.999z" fill="#E3E7F2"/><path d="M329.048 87.999v148.944l-37.952 18.683v394.435l-50.572 24.903V131.742l88.366-43.743h.158z" fill="#7FACFA"/><path d="M745.186 1000.64l-11.832 5.77L50.901 669.804.329 644.901V-73.543l88.524-43.563 42.504 20.959-76.67 37.794V660.09l50.572 24.903 639.927 315.646z" fill="#fff"/><defs><linearGradient id="paint0_linear" x1="16.114" y1="205.066" x2="373.559" y2="215.416" gradientUnits="userSpaceOnUse"><stop stop-color="#D4E1F4"/><stop offset=".172" stop-color="#D4E1F4"/><stop offset=".2" stop-color="#D4E1F4"/><stop offset=".2" stop-color="#DAE4F4"/><stop offset=".201" stop-color="#EBEBF4"/><stop offset=".201" stop-color="#F6F1F4"/><stop offset=".202" stop-color="#FDF4F4"/><stop offset=".205" stop-color="#FFF5F4"/><stop offset=".252" stop-color="#FFF5F4"/><stop offset=".26" stop-color="#D4E1F4"/><stop offset=".397" stop-color="#D4E1F4"/><stop offset=".42" stop-color="#D4E1F4"/><stop offset=".42" stop-color="#DAE4F4"/><stop offset=".421" stop-color="#EBEBF4"/><stop offset=".421" stop-color="#F6F1F4"/><stop offset=".422" stop-color="#FDF4F4"/><stop offset=".425" stop-color="#FFF5F4"/><stop offset=".489" stop-color="#FFF5F4"/><stop offset=".5" stop-color="#F9F2F4"/><stop offset=".5" stop-color="#E8EBF4"/><stop offset=".5" stop-color="#DDE5F4"/><stop offset=".5" stop-color="#D6E2F4"/><stop offset=".501" stop-color="#D4E1F4"/><stop offset=".706" stop-color="#D4E1F4"/><stop offset=".74" stop-color="#D4E1F4"/><stop offset=".741" stop-color="#FFF5F4"/><stop offset=".835" stop-color="#FFF5F4"/><stop offset=".85" stop-color="#FFF5F4"/><stop offset=".851" stop-color="#D4E1F4"/></linearGradient></defs></svg>