<svg width="198" height="49" viewBox="0 0 198 49" fill="none" xmlns="http://www.w3.org/2000/svg">
<rect x="1.5" y="1.5" width="195" height="46" stroke="url(#paint0_linear)" stroke-width="3"/>
<path d="M13.7432 36V14.8623H18.167V36H13.7432ZM21.6826 36V14.8623H25.374L35.2471 28.6318H35.3643V14.8623H39.5977V36H35.9355L26.0479 22.1572H25.916V36H21.6826ZM48.8848 36L41.7803 14.8623H46.7314L51.5654 31.4443H51.668L56.502 14.8623H61.3213L54.2168 36H48.8848ZM77.4932 36H63.4893V14.8623H77.4932V18.5098H67.9131V23.6074H76.9512V27.0059H67.9131V32.3379H77.4932V36ZM84.1582 29.9795C84.2559 30.8389 84.7148 31.5371 85.5352 32.0742C86.3457 32.6016 87.3418 32.8652 88.5234 32.8652C89.6953 32.8652 90.6523 32.6113 91.3945 32.1035C92.127 31.6055 92.4932 30.9658 92.4932 30.1846C92.4932 29.501 92.2197 28.9492 91.6729 28.5293C91.126 28.1094 90.2129 27.7578 88.9336 27.4746L86.1797 26.874C82.3027 26.0439 80.3643 24.0762 80.3643 20.9707C80.3643 19.0371 81.1211 17.4697 82.6348 16.2686C84.1387 15.0869 86.0771 14.4961 88.4502 14.4961C90.8916 14.4961 92.8447 15.0771 94.3096 16.2393C95.7549 17.3916 96.4971 18.9297 96.5361 20.8535H92.3906C92.3223 19.9648 91.9268 19.2617 91.2041 18.7441C90.4912 18.2363 89.5781 17.9824 88.4648 17.9824C87.3711 17.9824 86.4922 18.2217 85.8281 18.7002C85.1543 19.1787 84.8174 19.8086 84.8174 20.5898C84.8174 21.2344 85.0908 21.7617 85.6377 22.1719C86.1748 22.5625 87.0537 22.8994 88.2744 23.1826L90.8379 23.7246C92.957 24.1738 94.5 24.877 95.4668 25.834C96.4336 26.7812 96.917 28.0605 96.917 29.6719C96.917 31.7227 96.1455 33.3486 94.6025 34.5498C93.0596 35.7607 90.9746 36.3662 88.3477 36.3662C85.7988 36.3662 83.7725 35.7998 82.2686 34.667C80.7549 33.5244 79.9639 31.9619 79.8955 29.9795H84.1582ZM104.769 36V18.5098H98.5869V14.8623H115.389V18.5098H109.192V36H104.769ZM122.962 36V18.5098H116.78V14.8623H133.582V18.5098H127.386V36H122.962ZM136.028 36V14.8623H140.452V36H136.028ZM166.351 36H162.41V21.7324H162.293L156.551 35.7949H153.768L148.025 21.7324H147.908V36H143.968V14.8623H149.095L155.101 29.8477H155.218L161.224 14.8623H166.351V36ZM183.87 36H169.866V14.8623H183.87V18.5098H174.29V23.6074H183.328V27.0059H174.29V32.3379H183.87V36Z" fill="white"/>
<defs>
<linearGradient id="paint0_linear" x1="0" y1="23.9024" x2="198" y2="23.9024" gradientUnits="userSpaceOnUse">
<stop offset="0.421875" stop-color="white"/>
<stop offset="1" stop-color="white"/>
</linearGradient>
</defs>
</svg>
