<svg width="151" height="37" viewBox="0 0 151 37" fill="none" xmlns="http://www.w3.org/2000/svg">
<rect x="1.5" y="1.5" width="148" height="34" stroke="url(#paint0_linear)" stroke-width="3"/>
<path d="M10 26.7153V10.2847H13.3804V26.7153H10Z" fill="#333333"/>
<path d="M16.0668 26.7153V10.2847H18.8875L26.4319 20.9879H26.5214V10.2847H29.7563V26.7153H26.958L19.4024 15.9551H19.3017V26.7153H16.0668Z" fill="#333333"/>
<path d="M36.8529 26.7153L31.4241 10.2847H35.2075L38.9013 23.1741H38.9797L42.6735 10.2847H46.3561L40.9273 26.7153H36.8529Z" fill="#333333"/>
<path d="M58.7136 26.7153H48.0127V10.2847H58.7136V13.1199H51.3931V17.0824H58.2995V19.724H51.3931V23.8687H58.7136V26.7153Z" fill="#333333"/>
<path d="M63.8066 22.0355C63.8812 22.7035 64.232 23.2463 64.8588 23.6638C65.4782 24.0737 66.2393 24.2786 67.1422 24.2786C68.0377 24.2786 68.769 24.0813 69.3361 23.6865C69.8958 23.2994 70.1757 22.8022 70.1757 22.1949C70.1757 21.6635 69.9667 21.2347 69.5488 20.9082C69.1309 20.5818 68.4332 20.3086 67.4557 20.0884L65.3513 19.6216C62.3888 18.9763 60.9075 17.4468 60.9075 15.0328C60.9075 13.5298 61.4859 12.3115 62.6425 11.3778C63.7917 10.4593 65.2729 10 67.0863 10C68.9518 10 70.4443 10.4517 71.5636 11.355C72.668 12.2507 73.2352 13.4463 73.265 14.9417H70.0973C70.0451 14.2509 69.7428 13.7044 69.1906 13.3021C68.6459 12.9073 67.9482 12.71 67.0975 12.71C66.2617 12.71 65.5901 12.896 65.0827 13.2679C64.5678 13.6399 64.3103 14.1295 64.3103 14.7368C64.3103 15.2378 64.5193 15.6477 64.9371 15.9665C65.3476 16.2701 66.0192 16.532 66.952 16.7522L68.9108 17.1735C70.5301 17.5227 71.7091 18.0692 72.4479 18.8131C73.1867 19.5495 73.5561 20.5439 73.5561 21.7964C73.5561 23.3905 72.9665 24.6544 71.7875 25.5881C70.6085 26.5294 69.0153 27 67.0079 27C65.0603 27 63.5119 26.5597 62.3627 25.6792C61.206 24.791 60.6016 23.5765 60.5493 22.0355H63.8066Z" fill="#333333"/>
<path d="M79.5557 26.7153V13.1199H74.8321V10.2847H87.6709V13.1199H82.9361V26.7153H79.5557Z" fill="#333333"/>
<path d="M93.4579 26.7153V13.1199H88.7343V10.2847H101.573V13.1199H96.8383V26.7153H93.4579Z" fill="#333333"/>
<path d="M103.442 26.7153V10.2847H106.823V26.7153H103.442Z" fill="#333333"/>
<path d="M126.613 26.7153H123.602V15.6249H123.512L119.124 26.5559H116.998L112.61 15.6249H112.52V26.7153H109.509V10.2847H113.427L118.016 21.933H118.106L122.695 10.2847H126.613V26.7153Z" fill="#333333"/>
<path d="M140 26.7153H129.299V10.2847H140V13.1199H132.68V17.0824H139.586V19.724H132.68V23.8687H140V26.7153Z" fill="#333333"/>
<defs>
<linearGradient id="paint0_linear" x1="0" y1="18.0488" x2="151" y2="18.0488" gradientUnits="userSpaceOnUse">
<stop offset="0.588442" stop-color="#333333"/>
<stop offset="0.588542" stop-color="#237BFF"/>
<stop offset="0.760417" stop-color="#237BFF"/>
</linearGradient>
</defs>
</svg>
