<svg width="140" height="140" viewBox="0 0 140 140" fill="none" xmlns="http://www.w3.org/2000/svg">
<path d="M136.846 68.3645L123.265 54.0368C122.952 53.7014 122.463 53.5921 122.033 53.7634C121.603 53.9311 121.326 54.3467 121.326 54.8061V61.8059C121.326 62.411 120.834 62.9032 120.228 62.9032H95.4266C93.6001 62.8886 91.9486 61.8168 91.2012 60.1507C88.857 55.0977 84.7957 51.0401 79.7464 48.6922C78.1131 47.9594 77.0413 46.3553 76.9939 44.5616V19.7598C76.9939 19.1546 77.4861 18.6625 78.0913 18.6625H85.2332C85.6853 18.6625 86.0972 18.389 86.2686 17.9734C86.4436 17.5542 86.3488 17.0729 86.0243 16.7521L72.0248 3.17182C71.5472 2.64319 70.8691 2.34424 70.1582 2.34424C69.4473 2.34424 68.7692 2.64319 68.2916 3.17182L54.0332 16.7266C53.6978 17.0401 53.5884 17.5286 53.7597 17.9588C53.9274 18.389 54.3431 18.6661 54.8024 18.6661H61.8022C62.4074 18.6661 62.8996 19.1583 62.8996 19.7635V44.5653C62.8886 46.3918 61.8131 48.0433 60.147 48.7906C55.0941 51.1348 51.0364 55.1962 48.6886 60.2455C47.9558 61.8788 46.3517 62.9506 44.558 62.998H19.7562C19.151 62.998 18.6588 62.5058 18.6588 61.9007V54.7587C18.6588 54.3066 18.3854 53.8947 17.9698 53.7233C17.5505 53.5483 17.0693 53.6467 16.7484 53.9676L3.16816 67.9671C2.64317 68.4447 2.34058 69.1228 2.34058 69.8337C2.34058 70.5446 2.63953 71.2227 3.16816 71.7003L16.7484 86.028C17.0729 86.3561 17.5687 86.4509 17.9916 86.265C18.4145 86.079 18.6807 85.6525 18.6588 85.1895V78.1897C18.6333 77.8835 18.739 77.5772 18.9468 77.3512C19.1583 77.1252 19.4499 76.9976 19.7562 76.9976H44.558C46.3845 77.0085 48.036 78.0876 48.7833 79.7501C51.1275 84.803 55.1889 88.8607 60.2382 91.2049C61.9043 91.9523 62.9798 93.6038 62.9907 95.4303V120.232C62.9907 120.837 62.4985 121.329 61.8933 121.329H54.7514C54.2993 121.329 53.8873 121.603 53.716 122.018C53.541 122.438 53.6394 122.919 53.9603 123.24L67.9598 136.82C68.4374 137.349 69.1155 137.648 69.8264 137.648C70.5373 137.648 71.2154 137.349 71.693 136.82L86.0207 123.24C86.3561 122.926 86.4655 122.438 86.2941 122.008C86.1228 121.581 85.7108 121.3 85.2514 121.3H78.2517C77.6465 121.3 77.1543 120.812 77.1543 120.203V95.4266C77.1689 93.6001 78.2444 91.9486 79.9068 91.2013C84.9598 88.8571 89.0175 84.7957 91.3653 79.7464C92.0872 78.1314 93.6585 77.0668 95.4266 76.9939H120.228C120.834 76.9939 121.326 77.4861 121.326 78.0913V85.2332C121.326 85.6853 121.599 86.0973 122.015 86.2686C122.434 86.4436 122.915 86.3452 123.236 86.0243L136.816 72.0248C137.323 71.5509 137.611 70.891 137.618 70.1983C137.626 69.5093 137.345 68.8457 136.846 68.3645Z" fill="#D3DFF2"/>
<path d="M79.0282 16.7521C79.349 17.0729 79.4438 17.5542 79.2725 17.9734C79.0975 18.3927 78.6891 18.6661 78.2371 18.6625H85.2368C85.6889 18.6625 86.1009 18.389 86.2722 17.9734C86.4472 17.5542 86.3524 17.0729 86.028 16.7521L72.0284 3.17182C71.5508 2.64319 70.8727 2.34424 70.1618 2.34424C69.4509 2.34424 68.7728 2.64319 68.2952 3.17182L66.6838 4.66656L79.0282 16.7521Z" fill="#CAD9FC"/>
<path d="M76.9975 44.5652V19.7634C76.9975 19.1582 77.4897 18.666 78.0949 18.666H71.0951C70.4899 18.666 69.9977 19.1582 69.9977 19.7634V44.5652C70.0087 46.3917 71.0842 48.0432 72.7503 48.7906C77.8032 51.1348 81.8609 55.1961 84.2087 60.2454C84.9561 61.9115 86.6076 62.987 88.4305 62.9979H95.4303C93.6038 62.9833 91.9522 61.9078 91.2049 60.2454C88.8607 55.1924 84.7993 51.1348 79.75 48.7906C78.0876 48.0395 77.0085 46.3917 76.9975 44.5652Z" fill="#D3DFF2"/>
<path d="M136.846 68.3645L123.265 54.0368C122.952 53.7014 122.463 53.5921 122.033 53.7634C121.603 53.9311 121.326 54.3467 121.326 54.8061V59.4726L129.842 68.4556C130.371 68.9332 130.67 69.6113 130.67 70.3223C130.67 71.0332 130.371 71.7113 129.842 72.1889L121.326 80.8V85.2332C121.326 85.6853 121.599 86.0973 122.015 86.2686C122.434 86.4436 122.915 86.3452 123.236 86.0244L136.816 72.0248C137.323 71.5509 137.611 70.891 137.619 70.1983C137.626 69.5093 137.345 68.8457 136.846 68.3645Z" fill="#D3DFF2"/>
<path d="M84.2087 79.7501C81.8646 84.803 77.8032 88.8607 72.7503 91.2049C71.0842 91.9523 70.0087 93.6038 69.9977 95.4303V120.232C69.9977 120.837 70.4899 121.329 71.0951 121.329H78.0949C77.4897 121.329 76.9975 120.837 76.9975 120.232V95.4303C77.0085 93.6038 78.0876 91.9523 79.75 91.2049C84.7993 88.8607 88.8607 84.7994 91.2049 79.7501C91.9522 78.084 93.6038 77.0085 95.4303 76.9976H88.4305C86.604 77.0085 84.9561 78.0876 84.2087 79.7501Z" fill="#B7C9ED"/>
<path d="M85.1858 121.329H78.186C78.6454 121.329 79.061 121.607 79.2287 122.037C79.3964 122.463 79.2907 122.952 78.9553 123.269L66.3083 135.333L67.8942 136.897C68.3718 137.425 69.0499 137.724 69.7608 137.724C70.4717 137.724 71.1498 137.425 71.6274 136.897L85.955 123.316C86.3269 123.01 86.4618 122.496 86.2868 122.048C86.1155 121.592 85.6707 121.304 85.1858 121.329Z" fill="#CAD9FC"/>
<path d="M101.985 47.3395L130.356 18.9685C130.528 18.8081 130.794 18.8081 130.961 18.9685L136.937 25.6657C137.057 25.7933 137.243 25.8297 137.403 25.7641C137.564 25.6949 137.666 25.5381 137.662 25.3631V4.66636C137.662 3.37578 136.616 2.3331 135.329 2.3331H114.749C114.574 2.32946 114.417 2.43154 114.348 2.59195C114.282 2.75236 114.319 2.93829 114.446 3.0586L121.027 9.03393C121.187 9.20163 121.187 9.47142 121.027 9.63912L92.6558 38.0101C92.2147 38.4476 91.9668 39.0455 91.9668 39.6652C91.9668 40.285 92.2147 40.8829 92.6558 41.3204L98.6749 47.3395C99.1124 47.7806 99.7103 48.0321 100.33 48.0321C100.953 48.0321 101.548 47.7842 101.985 47.3395Z" fill="#D3DFF2"/>
<path d="M47.3396 38.0102L18.9687 9.63927C18.8082 9.46792 18.8082 9.20178 18.9687 9.03408L25.6658 3.05875C25.8445 2.93479 25.8955 2.69417 25.7861 2.5046C25.6768 2.31502 25.4434 2.24211 25.2466 2.33325H4.66651C3.37593 2.33325 2.33325 3.37957 2.33325 4.66651V25.2466C2.32961 25.4216 2.43169 25.5783 2.5921 25.6476C2.75251 25.7132 2.93844 25.6768 3.05875 25.5492L9.03408 18.9687C9.20178 18.8082 9.47157 18.8082 9.63927 18.9687L38.0102 47.3396C38.4477 47.7807 39.0456 48.0323 39.6654 48.0323C40.2888 48.0323 40.8831 47.7844 41.3205 47.3396L47.3396 41.3205C47.7808 40.883 48.0323 40.2851 48.0323 39.6654C48.0323 39.0456 47.7844 38.4477 47.3396 38.0102Z" fill="#D3DFF2"/>
<path d="M38.0102 92.6558L9.63927 121.027C9.46792 121.187 9.20178 121.187 9.03408 121.027L3.05875 114.446C2.93844 114.319 2.75251 114.282 2.5921 114.348C2.43169 114.417 2.32961 114.574 2.33325 114.749V135.325C2.33325 136.616 3.37958 137.659 4.66651 137.659H25.2466C25.4216 137.662 25.5783 137.56 25.6476 137.4C25.7132 137.239 25.6768 137.053 25.5492 136.933L18.9687 130.958C18.8082 130.79 18.8082 130.524 18.9687 130.353L47.3396 101.982C47.7808 101.544 48.0323 100.946 48.0323 100.326C48.0323 99.7066 47.7844 99.1087 47.3396 98.6712L41.3205 92.6522C40.8831 92.211 40.2852 91.9595 39.6654 91.9595C39.042 91.9631 38.4477 92.211 38.0102 92.6558Z" fill="#CAD9FC"/>
<path d="M92.6522 101.985L121.023 130.356C121.184 130.528 121.184 130.794 121.023 130.961L114.443 136.937C114.315 137.057 114.279 137.243 114.344 137.403C114.414 137.564 114.57 137.666 114.745 137.662H135.325C136.612 137.662 137.659 136.616 137.659 135.329V114.753C137.662 114.578 137.56 114.421 137.4 114.351C137.239 114.286 137.053 114.322 136.933 114.45L130.958 121.03C130.79 121.191 130.524 121.191 130.353 121.03L101.982 92.6595C101.544 92.2183 100.946 91.9668 100.326 91.9668C99.703 91.9668 99.1088 92.2147 98.6713 92.6595L92.6522 98.6786C92.2111 99.116 91.9632 99.7139 91.9632 100.334C91.9632 100.953 92.2111 101.548 92.6522 101.985Z" fill="#D3DFF2"/>
<path d="M9.33305 135.329V121.144C9.22003 121.151 9.11066 121.107 9.03045 121.027L3.05512 114.446C2.93481 114.319 2.74888 114.282 2.58847 114.348C2.42806 114.417 2.32598 114.574 2.32962 114.749V135.325C2.32962 136.616 3.37594 137.659 4.66288 137.659H11.6663C10.3757 137.662 9.33305 136.616 9.33305 135.329Z" fill="white"/>
<path d="M16.7301 85.9586C17.0437 86.2941 17.5322 86.4034 17.9624 86.2321C18.3926 86.0644 18.6697 85.6488 18.6697 85.1894V80.5229L10.1533 71.6346C9.62465 71.157 9.3257 70.4789 9.3257 69.768C9.3257 69.0571 9.62829 68.379 10.1533 67.9014L18.6697 59.1991V54.7659C18.6697 54.3138 18.3962 53.9019 17.9806 53.7305C17.5614 53.5555 17.0801 53.654 16.7593 53.9748L3.17902 67.9743C2.65404 68.4519 2.35144 69.13 2.35144 69.8409C2.35144 70.5519 2.65039 71.23 3.17902 71.7075L16.7301 85.9586Z" fill="white"/>
<path d="M3.0551 25.6658L9.03043 18.9687C9.11063 18.8884 9.22001 18.8447 9.33302 18.852V4.66651C9.33302 3.37593 10.3757 2.33325 11.6663 2.33325H4.66651C3.37592 2.33325 2.33325 3.37958 2.33325 4.66651V25.2466C2.24211 25.4434 2.31502 25.6768 2.5046 25.7861C2.69053 25.8955 2.93114 25.8445 3.0551 25.6658Z" fill="white"/>
<path d="M16.0302 121.027C16.2016 121.187 16.4677 121.187 16.6354 121.027L43.1653 94.4969L41.3242 92.6558C40.8867 92.2147 40.2888 91.9631 39.669 91.9631C39.0456 91.9631 38.4514 92.211 38.0139 92.6558L13.0006 117.669L16.0302 121.027Z" fill="#D3DFF2"/>
<path d="M38.0102 47.3394C38.4477 47.7805 39.0456 48.0321 39.6654 48.0321C40.2888 48.0321 40.8831 47.7842 41.3206 47.3394L43.1616 45.4983L16.6318 18.9685C16.4604 18.808 16.1979 18.808 16.0266 18.9685L12.9933 22.3262L38.0102 47.3394Z" fill="white"/>
<path d="M23.1321 35.8082L26.4315 32.5088L39.6289 45.7063L36.3296 49.0057L23.1321 35.8082Z" fill="white"/>
<path d="M4.66652 139.995H25.2466C26.333 139.952 27.2882 139.274 27.6929 138.267C28.0975 137.261 27.8678 136.109 27.1132 135.329L22.0274 130.662L48.9984 103.619C50.8103 101.799 50.8103 98.8609 48.9984 97.038L42.9575 90.9971C41.1383 89.1888 38.1998 89.1888 36.3769 90.9971L9.33303 117.968L4.66652 112.788C3.86811 112.044 2.70512 111.84 1.6989 112.259C0.692687 112.682 0.02552 113.655 0 114.745V135.322C0 137.906 2.089 139.995 4.66652 139.995ZM4.66652 119.696L7.39715 122.682C7.9112 123.2 8.61483 123.491 9.34397 123.491C10.0731 123.491 10.7767 123.2 11.2908 122.682L39.6617 94.2855L45.7027 100.326L17.3317 128.697C16.8031 129.211 16.5078 129.919 16.5151 130.659C16.5151 132.292 17.6124 132.992 20.2957 135.325H4.66652V119.696Z" fill="#237BFF"/>
<path d="M135.329 112.882L130.662 117.968L103.622 90.9971C101.803 89.1888 98.8608 89.1888 97.0416 90.9971L91.0007 97.038C89.1887 98.8572 89.1887 101.796 91.0007 103.619L117.972 130.662L112.817 135.329C112.055 136.116 111.832 137.283 112.252 138.3C112.671 139.314 113.655 139.981 114.753 139.999H135.333C137.91 139.999 139.999 137.91 139.999 135.333V114.756C139.955 113.67 139.277 112.715 138.271 112.31C137.261 111.902 136.109 112.128 135.329 112.882ZM135.329 135.329H119.696L122.66 132.624C123.739 131.541 123.739 129.787 122.66 128.705L94.2891 100.334L100.33 94.2928L128.727 122.689C129.244 123.229 129.962 123.531 130.71 123.531C131.457 123.531 132.175 123.229 132.693 122.689L135.329 119.703V135.329Z" fill="#237BFF"/>
<path d="M70.2784 67.6643C66.0786 67.1284 65.3312 66.6836 65.3312 64.7222C65.3312 61.3645 73.031 60.7338 74.9668 63.8108C75.6085 64.9373 77.0485 65.3311 78.1751 64.6858C79.3016 64.0405 79.6917 62.6041 79.05 61.4775C77.497 59.2136 75.0543 57.7225 72.331 57.3688V55.9944C72.331 54.7038 71.2883 53.6611 69.9977 53.6611C68.7071 53.6611 67.6645 54.7075 67.6645 55.9944V57.4162C63.8438 57.799 60.8725 60.9088 60.6647 64.7441C60.6647 71.1824 66.3374 71.8824 69.717 72.3017C73.9169 72.8376 74.6642 73.2824 74.6642 75.2401C74.6642 77.7848 71.7477 78.1567 69.9977 78.1567C68.1421 78.2843 66.2864 77.8796 64.6531 76.9901C64.0589 76.3995 63.1985 76.1661 62.3891 76.3849C61.5798 76.6036 60.9491 77.2343 60.734 78.0437C60.5189 78.8494 60.7486 79.7134 61.3392 80.3077C63.1365 81.755 65.3531 82.5753 67.6608 82.6409V83.9935C67.6608 85.2841 68.7035 86.3267 69.9941 86.3267C71.281 86.3267 72.3274 85.2804 72.3274 83.9935V82.6409C76.2428 82.3967 79.298 79.1666 79.3271 75.2438C79.3308 68.8054 73.6617 68.1091 70.2784 67.6643Z" fill="#237BFF"/>
<path d="M124.946 52.4291C123.976 51.4156 122.492 51.0875 121.191 51.5979C119.886 52.112 119.018 53.3588 118.996 54.7624V60.6648H95.4303C94.5225 60.6539 93.7022 60.1179 93.3303 59.2904C90.7674 53.7088 86.2905 49.2282 80.7052 46.6653C79.8776 46.2934 79.3381 45.4731 79.3308 44.5653V20.9994H85.2332C86.6222 20.9666 87.8618 20.1062 88.3722 18.812C88.8826 17.5178 88.5654 16.0449 87.5665 15.0715L73.8476 1.63338C72.9581 0.656325 71.7076 0.0839511 70.3878 0.047494C69.0645 0.0110368 67.7884 0.51779 66.8478 1.44745L52.429 15.0496C51.4155 16.0194 51.0874 17.5032 51.5978 18.8047C52.1119 20.1099 53.3587 20.9775 54.7623 20.9994H60.6647V44.5653C60.6538 45.4731 60.1179 46.2934 59.2903 46.6653C53.7087 49.2282 49.2281 53.7051 46.6652 59.2904C46.2933 60.1179 45.473 60.6575 44.5652 60.6648H20.9993V54.7624C20.9665 53.3734 20.1061 52.1338 18.8119 51.6271C17.5177 51.1167 16.0448 51.4339 15.0714 52.4328L1.6333 66.1516C0.648955 67.0375 0.0729299 68.288 0.0364727 69.6114C0.00366126 70.9348 0.510417 72.2144 1.44737 73.1514L15.0495 87.479C16.0193 88.4926 17.5031 88.8207 18.8083 88.3066C20.1134 87.7962 20.9811 86.5457 21.003 85.1421V79.3309H44.5689C45.4767 79.3418 46.297 79.8777 46.6688 80.7053C49.2318 86.2869 53.7087 90.7675 59.2939 93.3304C60.1215 93.7023 60.6611 94.5226 60.6684 95.4303V118.996H54.766C53.3769 119.029 52.1374 119.889 51.6306 121.184C51.1202 122.478 51.4374 123.951 52.4363 124.924L66.2244 138.362C67.114 139.339 68.3645 139.912 69.6842 139.948C71.0076 139.985 72.2836 139.478 73.2242 138.548L87.5519 124.946C88.5654 123.976 88.8935 122.492 88.3795 121.191C87.8691 119.886 86.6186 119.018 85.2186 118.996H79.3308V95.4303C79.3417 94.5226 79.8776 93.7023 80.7052 93.3304C86.2868 90.7675 90.7674 86.2905 93.3303 80.7053C93.7022 79.8777 94.5225 79.3382 95.4303 79.3309H118.996V85.2333C119.029 86.6223 119.889 87.8618 121.184 88.3722C122.478 88.8826 123.951 88.5655 124.924 87.5665L138.362 73.7529C139.379 72.8524 139.97 71.5691 139.999 70.2129C140.025 68.8567 139.485 67.5479 138.501 66.611L124.946 52.4291ZM123.663 82.2474V78.095C123.663 76.1992 122.128 74.6643 120.232 74.6643H95.4303C92.6923 74.6753 90.2132 76.2794 89.0831 78.7694C86.9868 83.3302 83.3301 86.9869 78.7693 89.0832C76.2793 90.2133 74.6752 92.6924 74.6643 95.4303V120.232C74.6643 122.128 76.1991 123.663 78.0949 123.663H82.1307L69.9977 135.165C69.9103 135.205 69.8337 135.26 69.7644 135.325L57.7263 123.659H61.8787C62.7938 123.666 63.6724 123.309 64.3214 122.664C64.9703 122.019 65.3349 121.144 65.3349 120.229V95.4267C65.3239 92.6888 63.7198 90.2097 61.2298 89.0795C56.669 86.9832 53.0124 83.3266 50.9161 78.7658C49.7859 76.2758 47.3068 74.6716 44.5689 74.6607H19.7671C17.8713 74.6607 16.3365 76.1956 16.3365 78.0913V82.1271L4.83059 69.9978C4.79049 69.9103 4.7358 69.8338 4.67018 69.7645L16.3365 57.7264V61.8788C16.3292 62.7939 16.6901 63.6725 17.3317 64.3215C17.977 64.9704 18.852 65.335 19.7671 65.335H44.5689C47.3068 65.324 49.7859 63.7199 50.9161 61.2299C53.0124 56.6691 56.669 53.0124 61.2298 50.9162C63.7198 49.786 65.3239 47.3069 65.3349 44.569V19.7672C65.3349 17.8714 63.8 16.3365 61.9043 16.3365H57.8685L69.9977 4.83067C70.0853 4.79057 70.1618 4.73588 70.2311 4.66661L82.2692 16.3329H78.0912C76.1991 16.3329 74.6606 17.8677 74.6606 19.7635V44.5653C74.6716 47.3032 76.2757 49.7823 78.7657 50.9125C83.3265 53.0088 86.9831 56.6655 89.0794 61.2262C90.2096 63.7163 92.6887 65.3204 95.4266 65.3313H120.228C122.124 65.3313 123.659 63.7965 123.659 61.9007V57.8649L135.165 69.9978C135.205 70.0853 135.26 70.1619 135.329 70.2312L123.663 82.2474Z" fill="#237BFF"/>
<path d="M135.329 1.4247e-05H114.749C113.611 -0.00363147 112.591 0.692701 112.175 1.74996C111.763 2.81086 112.04 4.01394 112.879 4.78319L117.964 9.44971L90.9934 36.377C89.1815 38.1962 89.1815 41.1346 90.9934 42.9575L97.0344 48.9984C98.8536 50.8067 101.792 50.8067 103.615 48.9984L130.655 22.0274L135.322 27.208C136.12 27.9517 137.283 28.1559 138.289 27.7366C139.296 27.3137 139.963 26.3403 139.988 25.2502V4.66653C139.995 2.08901 137.907 1.4247e-05 135.329 1.4247e-05ZM135.329 20.2994L132.598 17.3135C132.084 16.7958 131.381 16.5078 130.652 16.5078C129.922 16.5078 129.219 16.7995 128.705 17.3135L100.334 45.71L94.2928 39.669L122.664 11.2981C123.192 10.784 123.488 10.0768 123.48 9.33669C123.48 7.70341 122.383 7.00343 119.7 4.67017H135.333V20.2994H135.329Z" fill="#237BFF"/>
<path d="M31.4516 43.0706C30.161 43.0706 29.1183 42.0242 29.1183 40.7373C29.1183 39.4504 30.1647 38.4041 31.4516 38.4041C32.7385 38.4041 33.7849 39.4504 33.7849 40.7373C33.7849 42.0279 32.7385 43.0706 31.4516 43.0706Z" fill="#428DFF"/>
<path d="M4.78319 27.1132L9.33305 22.0274L23.0993 35.7936C24.0253 36.5884 25.4034 36.5337 26.2674 35.6697C27.1314 34.8093 27.1825 33.4276 26.3913 32.5015L11.2944 17.3135C10.7731 16.7739 10.0585 16.4713 9.31117 16.4713C8.5638 16.4713 7.84559 16.7739 7.3279 17.3135L4.66653 20.2993V4.66652H20.2994C17.2916 7.39716 16.5187 7.7909 16.5187 9.33303C16.5115 10.0658 16.7958 10.7731 17.3135 11.2944L45.71 39.6654L39.669 45.7063C38.743 44.9152 37.3649 44.9662 36.5009 45.8303C35.6369 46.6907 35.5858 48.0724 36.377 48.9984C38.1962 50.8067 41.1346 50.8067 42.9575 48.9984L48.9984 42.9575C50.8103 41.1382 50.8103 38.1998 48.9984 36.3769L22.0274 9.33303L27.1861 4.66652C27.9481 3.87904 28.1705 2.71241 27.7512 1.6989C27.3319 0.685396 26.3476 0.0182286 25.2502 0H4.66653C2.08901 0 1.4247e-05 2.089 1.4247e-05 4.66652V25.2466C-0.00363147 26.384 0.692701 27.4048 1.74996 27.8168C2.81086 28.2288 4.01395 27.9517 4.78319 27.1132Z" fill="#237BFF"/>
</svg>
