<svg width="60" height="60" viewBox="0 0 60 60" fill="none" xmlns="http://www.w3.org/2000/svg">
<path d="M0 32.5033C0 30.7797 0 29.0573 0 27.3336C0.0939438 27.2749 0.110384 27.1797 0.11743 27.081C0.186713 26.0072 0.372252 24.9509 0.590672 23.8993C1.73561 18.3607 4.22747 13.5094 8.08152 9.38075C12.0988 5.07699 16.9968 2.22544 22.6957 0.766182C24.1518 0.39373 25.6197 0.0377258 27.1439 0.0729737C27.8767 0.0894226 28.1644 0.353782 28.1655 1.10339C28.1726 4.62699 28.1667 8.15178 28.1714 11.6754C28.1714 11.9033 28.0704 12.0608 27.96 12.2511C27.6747 12.7422 27.2684 12.9431 26.7258 13.0042C26.3418 13.0477 25.9637 13.1722 25.5891 13.2792C22.1696 14.2555 19.2961 16.0755 17.0003 18.8095C14.6494 21.6082 13.333 24.8404 13.0417 28.4639C12.9091 30.1159 12.9913 31.7807 13.3588 33.4221C14.4016 38.0701 16.8876 41.7171 20.8825 44.3008C23.7807 46.176 26.976 47.0478 30.4366 46.9843C32.5245 46.9455 34.5478 46.6048 36.4725 45.7988C41.6641 43.6264 45.0766 39.8396 46.6748 34.4337C46.8463 33.8545 46.9402 33.2541 47.1081 32.6737C47.2714 32.1086 47.6565 31.8207 48.2261 31.8195C51.8065 31.8113 55.3881 31.8078 58.9685 31.8136C59.7048 31.8148 60.0806 32.2578 59.9855 32.9944C59.8716 33.8674 59.76 34.7427 59.5874 35.604C58.2322 42.3798 55.0018 48.0911 49.7867 52.6357C45.4606 56.4049 40.4322 58.7101 34.7745 59.6524C33.9877 59.7828 33.1833 59.7828 32.4106 60.0002C30.7666 60.0002 29.1226 60.0002 27.4786 60.0002C27.4187 59.9073 27.3224 59.8921 27.2237 59.8862C26.3454 59.8333 25.4811 59.6865 24.6168 59.5302C20.5655 58.797 16.8253 57.2849 13.4011 55.0055C11.4142 53.6826 9.58931 52.1704 8.00049 50.3669C7.30531 49.5774 6.58311 48.8125 5.95604 47.9677C2.82066 43.7439 0.901861 39.0277 0.205502 33.8051C0.147962 33.3728 0.253648 32.904 0 32.5033Z" fill="white"/>
<path d="M53.5633 27.8904C51.9392 27.8904 50.314 27.8916 48.6899 27.8904C47.5814 27.8892 47.2138 27.5567 46.9872 26.4652C46.4153 23.7241 45.2915 21.2427 43.5089 19.0655C41.2003 16.2445 38.3209 14.2965 34.8086 13.3002C34.3224 13.1627 33.8339 13.0381 33.3301 12.9629C32.5292 12.8431 32.0912 12.3332 32.0901 11.5096C32.0818 8.10227 32.0877 4.69498 32.083 1.28769C32.083 1.02568 32.1394 0.780124 32.238 0.547489C32.4153 0.131564 32.7312 -0.0411513 33.1692 0.00819566C39.2204 0.700228 44.6104 2.95139 49.3111 6.84158C53.824 10.5767 56.9077 15.2705 58.709 20.8244C59.3385 22.763 59.7424 24.7522 59.9667 26.7789C60.0383 27.4287 59.5839 27.8822 58.7889 27.8986C57.8307 27.9174 56.8713 27.9033 55.9119 27.9033C55.1286 27.9033 54.3465 27.9033 53.5633 27.9033C53.5633 27.8986 53.5633 27.8939 53.5633 27.8904Z" fill="#FF9D00"/>
<path d="M42.3921 29.8362C42.5178 36.3182 37.1383 42.1341 30.1653 42.1165C23.2523 42.0977 17.9209 36.6872 17.8951 29.8503C17.8681 22.7337 23.7337 17.5206 30.2757 17.5699C36.806 17.6204 42.5424 23.1602 42.3921 29.8362ZM32.8204 25.0037C32.8204 25.0002 32.8204 24.9978 32.8204 24.9943C31.8434 24.9943 30.8676 24.9931 29.8906 24.9943C29.0592 24.9966 28.6552 25.2939 28.6493 25.9025C28.6435 26.5088 29.0627 26.8295 29.8765 26.8307C31.8493 26.8331 33.8221 26.8319 35.7949 26.8307C36.0098 26.8307 36.2236 26.8401 36.4314 26.7626C36.8013 26.6227 37.0491 26.2914 37.0514 25.919C37.0538 25.5242 36.7872 25.1576 36.3891 25.0507C36.2236 25.006 36.0415 25.0049 35.8677 25.0049C34.852 25.0013 33.8362 25.0037 32.8204 25.0037ZM32.8263 30.7291C32.8263 30.7326 32.8263 30.735 32.8263 30.7385C33.4522 30.7385 34.0793 30.7385 34.7052 30.7385C35.1949 30.7385 35.6845 30.7573 36.1731 30.7291C36.6909 30.6986 37.0608 30.2838 37.0514 29.8045C37.042 29.338 36.6944 28.9973 36.1754 28.9562C36.0004 28.9421 35.8231 28.9491 35.647 28.9491C33.9642 28.9526 32.2814 28.9526 30.5987 28.9656C30.19 28.9691 29.7825 28.8504 29.3715 28.9573C28.8865 29.0819 28.6258 29.4073 28.6505 29.8843C28.6763 30.3907 29.0509 30.7197 29.6569 30.7268C30.7126 30.7373 31.7694 30.7291 32.8263 30.7291ZM32.8322 34.6416C32.8322 34.6369 32.8322 34.6322 32.8322 34.6264C33.9466 34.6264 35.061 34.6381 36.1754 34.6205C36.6851 34.6123 37.0326 34.2457 37.0467 33.7745C37.0597 33.3198 36.7015 32.918 36.2224 32.864C36.0674 32.8463 35.91 32.8546 35.7538 32.8546C34.0922 32.8546 32.4306 32.8546 30.7689 32.8546C30.3579 32.8546 29.9469 32.8393 29.5371 32.8616C28.9535 32.8945 28.5883 33.3292 28.654 33.8756C28.708 34.3291 29.0627 34.6299 29.6076 34.6358C30.682 34.6499 31.7565 34.6416 32.8322 34.6416ZM24.8657 26.8237C24.8657 26.8213 24.8657 26.819 24.8657 26.8154C25.1394 26.8154 25.4165 26.8448 25.6854 26.8096C26.181 26.7438 26.525 26.3478 26.5192 25.9002C26.5133 25.4114 26.1469 25.0331 25.6126 25.0084C25.1441 24.9872 24.6732 24.9896 24.2046 25.0096C23.6421 25.0331 23.2887 25.3656 23.2605 25.859C23.2311 26.3701 23.5846 26.759 24.1612 26.8201C24.3937 26.8448 24.6309 26.8237 24.8657 26.8237ZM24.9057 30.7326C25.1581 30.7326 25.413 30.7514 25.6643 30.7291C26.1575 30.6833 26.5109 30.3085 26.5192 29.8526C26.5262 29.4238 26.2185 29.0302 25.7535 28.9562C25.1758 28.8633 24.5874 28.8645 24.0097 28.9573C23.513 29.036 23.2429 29.3815 23.2511 29.8444C23.2593 30.3202 23.5893 30.6833 24.0884 30.7303C24.3596 30.7538 24.6332 30.7326 24.9057 30.7326ZM24.8916 34.6334C24.8916 34.6311 24.8916 34.6275 24.8916 34.6252C25.1452 34.6252 25.3989 34.6393 25.6513 34.6228C26.1246 34.5923 26.4663 34.2621 26.5062 33.8204C26.5438 33.4009 26.2268 32.9251 25.7887 32.8886C25.1898 32.8381 24.5792 32.8381 23.9803 32.8839C23.5282 32.9192 23.2346 33.348 23.2534 33.8016C23.271 34.248 23.6045 34.597 24.0743 34.6299C24.3455 34.6499 24.6191 34.6334 24.8916 34.6334Z" fill="#5FC2DF"/>
<path d="M32.8205 25.0037C33.8362 25.0037 34.852 25.0013 35.8678 25.006C36.0416 25.0072 36.2236 25.0072 36.3891 25.0518C36.7872 25.1599 37.0538 25.5265 37.0515 25.9201C37.0491 26.2914 36.8013 26.6239 36.4314 26.7637C36.2236 26.8424 36.0087 26.8318 35.795 26.8318C33.8221 26.8318 31.8493 26.8342 29.8765 26.8318C29.0627 26.8307 28.6435 26.5099 28.6494 25.9036C28.6552 25.295 29.0592 24.9978 29.8906 24.9954C30.8676 24.9931 31.8434 24.9954 32.8205 24.9954C32.8205 24.9978 32.8205 25.0001 32.8205 25.0037Z" fill="#FEFEFE"/>
<path d="M32.8263 30.7291C31.7694 30.7291 30.7126 30.7373 29.6557 30.7255C29.0486 30.7185 28.6751 30.3895 28.6493 29.8831C28.6246 29.4061 28.8853 29.0806 29.3703 28.9561C29.7825 28.8504 30.1888 28.9679 30.5975 28.9643C32.2802 28.9514 33.963 28.9514 35.6458 28.9479C35.8219 28.9479 35.9992 28.9408 36.1742 28.9549C36.6932 28.9961 37.0408 29.3368 37.0502 29.8032C37.0596 30.2826 36.6897 30.6973 36.1719 30.7279C35.6845 30.7573 35.1937 30.7373 34.704 30.7373C34.0781 30.7385 33.451 30.7373 32.8251 30.7373C32.8263 30.7349 32.8263 30.7314 32.8263 30.7291Z" fill="#FEFEFE"/>
<path d="M32.8322 34.6416C31.7565 34.6416 30.6821 34.6499 29.6064 34.6381C29.0615 34.6322 28.7069 34.3315 28.6529 33.8779C28.5871 33.3316 28.9535 32.8969 29.5359 32.864C29.9458 32.8405 30.3568 32.8569 30.7678 32.8569C32.4294 32.8569 34.091 32.8569 35.7527 32.8569C35.9089 32.8569 36.0674 32.8487 36.2212 32.8663C36.7003 32.9204 37.0573 33.3222 37.0456 33.7769C37.0327 34.248 36.6839 34.6146 36.1742 34.6228C35.0598 34.6405 33.9454 34.6287 32.831 34.6287C32.8322 34.6311 32.8322 34.6358 32.8322 34.6416Z" fill="#FEFEFE"/>
<path d="M24.8658 26.8235C24.6309 26.8235 24.3937 26.8447 24.1624 26.82C23.587 26.7589 23.2335 26.37 23.2617 25.8589C23.2899 25.3654 23.6433 25.0329 24.2058 25.0094C24.6744 24.9895 25.1453 24.9871 25.6138 25.0083C26.1481 25.0329 26.5145 25.4113 26.5204 25.9C26.5262 26.3477 26.1822 26.7448 25.6866 26.8094C25.4177 26.8447 25.1406 26.8153 24.867 26.8153C24.8658 26.8188 24.8658 26.8212 24.8658 26.8235Z" fill="#FEFEFE"/>
<path d="M24.9056 30.7324C24.6332 30.7324 24.3584 30.7536 24.0883 30.7277C23.5892 30.6807 23.2593 30.3177 23.251 29.8418C23.2428 29.3801 23.5129 29.0347 24.0096 28.9548C24.5874 28.862 25.1757 28.862 25.7535 28.9536C26.2173 29.0276 26.5262 29.4212 26.5191 29.8501C26.5109 30.3059 26.1574 30.6807 25.6642 30.7266C25.4141 30.7512 25.1593 30.7324 24.9056 30.7324Z" fill="#FEFEFE"/>
<path d="M24.8915 34.6333C24.6191 34.6333 24.3443 34.6497 24.0731 34.6297C23.6033 34.5957 23.2698 34.2479 23.2522 33.8014C23.2346 33.3479 23.5282 32.919 23.9791 32.8838C24.5792 32.8368 25.1886 32.8368 25.7875 32.8885C26.2255 32.9261 26.5426 33.4008 26.505 33.8202C26.4651 34.262 26.1234 34.5921 25.6501 34.6227C25.3977 34.6391 25.144 34.625 24.8904 34.625C24.8915 34.6274 24.8915 34.6309 24.8915 34.6333Z" fill="#FEFEFE"/>
</svg>
