<svg width="60" height="60" viewBox="0 0 60 60" fill="none" xmlns="http://www.w3.org/2000/svg">
<path d="M27.5391 59.9989C26.7832 59.8814 26.0262 59.7734 25.2703 59.6466C22.7164 59.2334 20.2253 58.4962 17.8571 57.4526C15.7169 56.5178 13.7001 55.3217 11.8524 53.8917C10.4461 52.8053 9.06799 51.6801 7.91721 50.2931C7.22581 49.4604 6.42073 48.7264 5.88987 47.7621C5.38714 46.8484 5.52073 46.2752 6.41135 45.7585C8.91135 44.31 11.4114 42.8642 13.9114 41.4212C14.3168 41.1863 14.7199 40.9514 15.1231 40.7094C15.9375 40.2291 16.4051 40.2584 17.0274 40.969C18.2542 42.3892 19.7008 43.6026 21.3117 44.5629C23.5112 45.874 25.9809 46.6635 28.5317 46.8707C33.1465 47.2594 37.2258 45.944 40.8364 43.0819C41.6625 42.4253 42.3832 41.6537 43.0899 40.8668C43.5903 40.3089 44.0719 40.2361 44.7071 40.6167C46.275 41.5562 47.8711 42.4488 49.445 43.3743C50.7164 44.1224 52.0102 44.8471 53.3121 45.5612C54.6633 46.3058 54.7782 46.9071 53.8606 48.1626C52.4133 50.1439 50.6813 51.8387 48.7828 53.3913C45.405 56.1306 41.4675 58.0921 37.2492 59.1368C35.7469 59.495 34.2305 59.7898 32.6789 59.8955C32.4891 59.9096 32.277 59.8051 32.1199 60.0001H31.7684C31.3383 59.8122 30.9094 59.8556 30.4793 60.0001H29.2969C29.1331 59.9181 28.9526 59.8754 28.7696 59.8754C28.5865 59.8754 28.406 59.9181 28.2422 60.0001L27.5391 59.9989Z" fill="#FF9F00"/>
<path d="M0 27.3485C0.234375 26.6685 0.234375 25.9462 0.339844 25.2451C0.87707 21.8251 1.99941 18.5237 3.65742 15.4864C5.11118 12.8031 6.97248 10.3628 9.17461 8.25287C12.7441 4.79876 16.9406 2.45687 21.6797 1.04046C23.3836 0.530742 25.1297 0.238299 26.8875 0.00340595C27.2684 -0.0470961 27.8883 0.473194 27.9996 0.954725C28.0588 1.22115 28.0883 1.49334 28.0875 1.76628C28.0922 4.93656 28.0922 8.10762 28.0875 11.2795C28.0875 12.4915 27.8215 12.8509 26.6344 13.0846C22.9488 13.8116 19.8656 15.6039 17.3438 18.3603C15.3798 20.4974 14.0089 23.1129 13.3676 25.9462C12.627 29.1466 12.8156 32.3107 13.8539 35.4242C14.1809 36.4037 13.9828 36.8758 13.0828 37.3926C10.3484 38.9632 7.61406 40.5401 4.87969 42.1233C4.72734 42.2102 4.57734 42.2995 4.42148 42.3829C3.54961 42.8468 2.77266 42.6471 2.37891 41.7557C1.49375 39.747 0.852437 37.639 0.46875 35.477C0.292969 34.494 0.152344 33.5039 0 32.5162V27.3485Z" fill="#5FC2DF"/>
<path d="M60 32.5162C59.8828 33.0153 59.6777 33.511 59.6648 34.0124C59.6215 35.7319 59.1891 37.3749 58.616 38.9605C58.3348 39.7368 58.1766 40.5484 57.8449 41.3094C57.643 41.792 57.305 42.2051 56.8723 42.498C56.482 42.7681 56.0519 42.673 55.6605 42.4475C53.7465 41.3411 51.8359 40.2305 49.9289 39.1155C48.9691 38.5565 48.0105 37.9951 47.0473 37.4431C45.9445 36.8124 45.7781 36.4483 46.1977 35.2727C46.8211 33.5262 47.073 31.7093 47.0777 29.8795C47.0986 27.9666 46.7812 26.0651 46.1402 24.2632C45.7887 23.2884 45.9645 22.8538 46.8691 22.3324C49.784 20.6396 52.6992 18.9487 55.6148 17.2598C56.4352 16.7842 57.1301 17.0179 57.5004 17.8882C58.7766 20.889 59.6191 24.0072 59.8828 27.2675C59.8922 27.3849 59.8828 27.5024 60 27.5834V32.5162Z" fill="#C8CED6"/>
<path d="M30.4688 59.9984C30.8988 59.8543 31.3277 59.8109 31.7578 59.9984H30.4688Z" fill="#AB80DC"/>
<path d="M28.2422 59.9984C28.4059 59.9166 28.5865 59.874 28.7695 59.874C28.9526 59.874 29.1331 59.9166 29.2969 59.9984H28.2422Z" fill="#AB80DC"/>
<path d="M32.1094 59.9985C32.2664 59.804 32.4785 59.9083 32.6684 59.8942C32.6656 59.9125 32.6666 59.9312 32.6713 59.9491C32.6759 59.967 32.6841 59.9838 32.6953 59.9985H32.1094Z" fill="#B2E49F"/>
<path d="M31.8949 8.81319C31.8949 6.46426 31.8949 4.11532 31.8949 1.77578C31.8942 1.44375 31.9379 1.11312 32.025 0.792753C32.09 0.545344 32.2423 0.329959 32.4537 0.186552C32.6651 0.0431442 32.9213 -0.0185523 33.1746 0.0129067C39.3021 0.696234 45.0791 3.22483 49.7437 7.26524C51.3633 8.66169 52.7683 10.2531 54.068 11.9467C54.6387 12.6901 54.5672 13.356 53.748 13.854C52.2668 14.7443 50.7551 15.5875 49.2586 16.4543C47.8258 17.2835 46.3953 18.1165 44.9672 18.9535C44.0297 19.5032 43.5961 19.3869 42.7312 18.4427C40.3676 15.8623 37.5164 14.0772 34.1015 13.255C33.7254 13.1634 33.3433 13.0941 32.966 13.0096C32.318 12.8628 31.9957 12.4916 31.984 11.8116C31.9664 10.8145 31.984 9.81501 31.984 8.81789L31.8949 8.81319Z" fill="#123A91"/>
</svg>
