<svg width="60" height="60" viewBox="0 0 60 60" fill="none" xmlns="http://www.w3.org/2000/svg">
<path d="M59.9942 29.7679C59.2653 30.7147 58.1334 31.0733 57.1819 31.6826C56.084 32.3857 54.9298 32.9926 53.812 33.6594C53.2659 33.9863 52.7574 34.0672 52.1774 33.7156C50.292 32.5814 48.3891 31.4787 46.4885 30.369C46.042 30.1089 45.8498 29.7234 45.8252 29.2183C45.6818 26.01 44.5525 22.9239 42.5912 20.3807C40.7164 17.9083 38.2955 16.1799 35.3966 15.0995C34.4592 14.748 34.3619 14.4269 34.8646 13.5703C35.9883 11.658 37.1003 9.73744 38.2252 7.8286C38.5076 7.34817 38.5334 6.88297 38.2486 6.39668C37.3901 4.93195 36.5379 3.46527 35.6919 1.99663C35.4962 1.66033 35.2677 1.32168 35.5887 0.930309C35.9098 0.538933 36.2789 0.603382 36.6984 0.701812C41.2683 1.77517 45.3999 3.74845 49.0148 6.73064C54.5818 11.3264 58.0444 17.2087 59.4868 24.2734C59.6883 25.26 59.8735 26.2584 59.8829 27.2755C59.8829 27.4091 59.8723 27.5532 60 27.654L59.9942 29.7679Z" fill="#123A91"/>
<path d="M29.7627 0.00468635C30.5666 0.590578 30.8724 1.53503 31.3704 2.33302C32.2141 3.68409 32.9863 5.07968 33.7959 6.45184C34.0678 6.91118 33.9998 7.34708 33.7479 7.77595C32.6254 9.69065 31.4958 11.6018 30.3779 13.5177C30.2691 13.7144 30.11 13.8786 29.9169 13.9937C29.7238 14.1088 29.5036 14.1706 29.2788 14.1727C27.0008 14.2754 24.7721 14.8707 22.7462 15.9175C19.0657 17.8252 16.5558 20.7523 15.0993 24.6086C14.7595 25.5086 14.3904 25.655 13.5596 25.1617C11.6684 24.038 9.78188 22.906 7.8848 21.7917C7.64023 21.6324 7.3541 21.5489 7.06227 21.5516C6.77044 21.5543 6.48591 21.6431 6.24433 21.8069C4.83119 22.6681 3.39461 23.4884 1.96858 24.3286C1.63697 24.5254 1.29247 24.6801 0.946805 24.4071C0.601136 24.134 0.603479 23.772 0.700735 23.3583C1.76704 18.813 3.71685 14.7035 6.67671 11.0769C11.2782 5.43473 17.1898 1.97328 24.2871 0.506209C25.2515 0.307006 26.2299 0.119522 27.2259 0.117178C27.2843 0.124789 27.3438 0.118102 27.3991 0.0976927C27.4544 0.0772833 27.5039 0.0437612 27.5434 0L29.7627 0.00468635Z" fill="#5FC2DF"/>
<path d="M0 30.2367C0.602285 29.4493 1.53149 29.1329 2.3318 28.6372C3.62074 27.8381 4.96358 27.1139 6.26306 26.3312C6.78567 26.0148 7.25437 25.9597 7.78635 26.2784C9.69397 27.4127 11.6079 28.5388 13.528 29.6567C13.9568 29.9075 14.1455 30.2859 14.1654 30.7652C14.2826 33.7603 15.2458 36.4788 16.9038 38.9595C17.5741 39.9625 18.3205 40.9363 19.2274 41.712C20.8128 43.0666 22.5611 44.2009 24.5566 44.8993C25.5327 45.2426 25.6346 45.5625 25.112 46.453C23.9988 48.3525 22.8939 50.2567 21.7772 52.1526C21.4831 52.653 21.4526 53.1346 21.7514 53.6396C22.6255 55.1137 23.4868 56.6019 24.3726 58.0666C24.5683 58.3935 24.689 58.7029 24.4324 59.0333C24.1758 59.3638 23.8699 59.4095 23.4516 59.3145C18.5701 58.199 14.2193 56.0406 10.4228 52.769C5.32682 48.383 2.11971 42.8697 0.635094 36.3417C0.356208 35.1881 0.182854 34.0114 0.117176 32.8264C0.121913 32.7786 0.113502 32.7304 0.0928508 32.687C0.0721998 32.6437 0.0400938 32.6068 0 32.5803V30.2367Z" fill="#FF9D00"/>
<path d="M30.2314 60C29.5003 59.4844 29.2026 58.656 28.7656 57.9354C27.916 56.5374 27.1251 55.1043 26.2885 53.697C25.9885 53.1908 25.9744 52.7256 26.2767 52.2159C27.4087 50.3047 28.5277 48.3853 29.6491 46.4671C29.8998 46.0371 30.2888 45.8625 30.7646 45.8379C33.6606 45.7083 36.464 44.7778 38.8626 43.1498C41.7205 41.2222 43.7067 38.6197 44.9077 35.3926C45.2417 34.4927 45.5932 34.3661 46.4463 34.8676C48.2437 35.9222 50.0553 36.9616 51.8364 38.0525C52.5933 38.5212 53.2425 38.5212 54.0006 38.0525C55.3305 37.2135 56.7132 36.4472 58.0666 35.6387C58.383 35.4512 58.7017 35.3141 59.038 35.5777C59.352 35.825 59.379 36.1378 59.2911 36.5151C58.1732 41.398 56.0383 45.7722 52.7538 49.5676C47.8207 55.2672 41.5752 58.5693 34.1603 59.7294C33.5932 59.8184 33.0026 59.7633 32.4578 59.9953L30.2314 60Z" fill="#C8CED6"/>
<path d="M33.2557 28.9243C31.7746 28.9243 30.2935 28.9126 28.8112 28.9313C28.3179 28.9372 28.0203 28.697 27.9254 28.267C27.8199 27.7912 27.9746 27.387 28.496 27.1995C28.7172 27.1257 28.9498 27.0924 29.1827 27.1011H37.3698C37.5062 27.0944 37.6429 27.0983 37.7787 27.1128C38.3927 27.2065 38.7595 27.6049 38.7032 28.1064C38.64 28.6794 38.3248 28.9267 37.6428 28.9267L33.2557 28.9243Z" fill="#93A6CC"/>
<path d="M33.2557 32.9025C31.8496 32.9025 30.4435 32.9095 29.0374 32.9025C28.3191 32.9025 27.9266 32.572 27.9055 32.0014C27.8844 31.4307 28.2195 31.0815 28.7855 31.0815C31.7899 31.0815 34.7954 31.0815 37.801 31.0815C38.2896 31.0815 38.572 31.3159 38.6564 31.7787C38.7443 32.2603 38.5638 32.6107 38.0963 32.7993C37.8766 32.8798 37.6434 32.9168 37.4096 32.9083C36.0234 32.9083 34.6384 32.9083 33.2534 32.9083L33.2557 32.9025Z" fill="#93A6CC"/>
<path d="M38.0412 23.3232C38.6423 23.4592 38.7442 23.9091 38.6353 24.3989C38.5263 24.8887 38.1466 25.068 37.6744 25.068C35.3778 25.068 33.0807 25.068 30.7833 25.068C30.1224 25.068 29.4604 25.0809 28.7983 25.068C28.3425 25.0551 28.0004 24.8184 27.9265 24.3649C27.8527 23.9115 27.9453 23.4603 28.5124 23.3326L38.0412 23.3232Z" fill="#93A6CC"/>
<path d="M28.5171 36.6814C27.9453 36.5537 27.8469 36.1178 27.9313 35.6491C28.0156 35.1803 28.3777 34.946 28.8605 34.939C29.9315 34.939 31.0013 34.939 32.0723 34.939C33.9401 34.939 35.8082 34.939 37.6768 34.939C38.1455 34.939 38.5345 35.1264 38.6388 35.6069C38.7431 36.0873 38.6388 36.5443 38.0459 36.6837L28.5171 36.6814Z" fill="#93A6CC"/>
<path d="M23.5875 31.0804C24.0164 31.0804 24.4452 31.0897 24.8765 31.0804C25.3686 31.0663 25.6615 31.3358 25.7482 31.7705C25.8467 32.2615 25.6686 32.6904 25.1284 32.7935C24.0757 32.9848 22.9976 32.9888 21.9435 32.8052C21.4209 32.7197 21.2686 32.3048 21.3248 31.8408C21.3811 31.3768 21.6576 31.0698 22.1849 31.0815C22.6513 31.0886 23.1188 31.0804 23.5875 31.0804Z" fill="#93A6CC"/>
<path d="M23.536 28.9243H22.1299C21.6963 28.9243 21.4268 28.6993 21.3483 28.2903C21.2698 27.8814 21.3272 27.4607 21.7877 27.2604C21.9617 27.1756 22.1502 27.1246 22.3432 27.1104C23.1411 27.0928 23.9391 27.0834 24.7359 27.1104C25.1847 27.1244 25.5901 27.3037 25.7284 27.7771C25.7881 27.9541 25.7896 28.1456 25.7327 28.3236C25.6757 28.5015 25.5634 28.6566 25.412 28.7661C25.2584 28.8855 25.0659 28.9436 24.8718 28.929C24.4312 28.9184 23.9836 28.9243 23.536 28.9243Z" fill="#93A6CC"/>
<path d="M23.5114 36.7824C23.0837 36.7824 22.6536 36.7988 22.2224 36.7824C21.6612 36.7531 21.3213 36.3828 21.326 35.845C21.3307 35.3071 21.6846 34.9544 22.2517 34.9439C23.111 34.9259 23.9676 34.9259 24.8214 34.9439C25.3956 34.9556 25.7459 35.3153 25.7529 35.845C25.76 36.4004 25.4014 36.7601 24.7909 36.7824C24.3726 36.7988 23.9402 36.7824 23.5114 36.7824Z" fill="#93A6CC"/>
<path d="M25.153 23.3232C25.6627 23.4978 25.856 23.8787 25.7389 24.3778C25.6217 24.8465 25.2702 25.0715 24.7815 25.0692C23.9437 25.0692 23.1047 25.0832 22.2669 25.0633C21.7982 25.0528 21.4291 24.85 21.3495 24.345C21.2698 23.84 21.3916 23.451 21.9517 23.3232H25.153Z" fill="#93A6CC"/>
</svg>
