<svg width="140" height="140" viewBox="0 0 140 140" fill="none" xmlns="http://www.w3.org/2000/svg">
<path d="M48.9768 114.339C48.9732 121.123 46.0103 127.572 40.8681 132.002C35.7259 136.427 28.9109 138.396 22.2016 137.393C10.8494 135.618 2.47827 125.837 2.47827 114.343C2.47827 102.848 10.8457 93.0673 22.2016 91.2919C28.9109 90.2894 35.7259 92.2543 40.8681 96.6837C46.0103 101.106 48.9695 107.551 48.9768 114.339Z" fill="#B7C9ED"/>
<path d="M41.9796 114.339C41.976 125.852 33.5757 135.64 22.2016 137.39C10.8494 135.615 2.47827 125.834 2.47827 114.339C2.47827 102.845 10.8457 93.0637 22.2016 91.2883C33.5757 93.0382 41.976 102.826 41.9796 114.339Z" fill="#D3DFF2"/>
<path d="M17.001 121.339C16.5601 121.776 16.3123 122.374 16.3123 122.994C16.3123 123.613 16.5601 124.211 17.001 124.649C18.7977 126.096 21.0171 126.916 23.3204 126.982V128.338C23.3204 129.629 24.3663 130.671 25.6528 130.671C26.9429 130.671 27.9852 129.629 27.9852 128.338V126.985C31.8956 126.741 34.9532 123.511 34.9824 119.589C34.9824 113.151 29.3154 112.447 25.9334 112.031C21.7351 111.496 20.988 111.051 20.988 109.09C20.988 105.754 28.612 105.076 30.6201 108.178C31.2651 109.305 32.701 109.698 33.8271 109.053C34.9532 108.408 35.3468 106.971 34.7018 105.845C33.1529 103.574 30.7112 102.068 27.9852 101.715V100.337C27.9852 99.046 26.9392 98.0034 25.6528 98.0034C24.3663 98.0034 23.3204 99.046 23.3204 100.337V101.762C19.5011 102.145 16.5346 105.254 16.3232 109.086C16.3232 115.524 21.9902 116.227 25.3722 116.647C29.5705 117.183 30.3176 117.627 30.3176 119.585C30.3176 122.13 27.4021 122.501 25.6528 122.501C23.7978 122.644 21.9392 122.235 20.3101 121.335C19.8728 120.894 19.2751 120.642 18.6556 120.642C18.0324 120.65 17.4384 120.897 17.001 121.339Z" fill="#237BFF"/>
<path d="M4.22021 125.793C2.93011 125.793 1.88782 124.751 1.88782 123.46C1.88782 122.17 2.93375 121.127 4.22021 121.127C5.50668 121.127 6.55261 122.173 6.55261 123.46C6.55261 124.747 5.50668 125.793 4.22021 125.793Z" fill="#428DFF"/>
<path d="M65.8174 70.6617L80.4642 79.0392C81.4263 79.5897 82.6471 79.3855 83.3797 78.5507L119.998 37.3451H137.608C138.894 37.3451 139.94 36.3025 139.94 35.012C139.94 33.7214 138.894 32.6788 137.608 32.6788H118.949C118.278 32.6788 117.64 32.9668 117.199 33.4735L81.1384 74.0448L66.4661 65.6455C65.4931 65.0841 64.254 65.3028 63.5288 66.1595L40.3943 93.3407C36.9504 90.8763 32.9379 89.3269 28.7323 88.8384L56.7211 42.9228L75.7046 55.5692C76.7688 56.2764 78.2047 55.9957 78.9226 54.9385L107.797 12.7304L117.502 20.499C118.366 21.2209 119.623 21.2209 120.487 20.499L139.146 4.16701C139.631 3.75506 139.926 3.16448 139.966 2.5338C140.006 1.89948 139.784 1.27609 139.354 0.809458C138.504 -0.156611 137.032 -0.251392 136.066 0.601665L118.945 15.6505L108.73 7.53184C108.223 7.12719 107.571 6.9522 106.926 7.05063C106.285 7.14906 105.712 7.50997 105.348 8.04587L76.3314 50.4618C56.3894 37.1628 56.9725 37.3488 55.9703 37.3488H46.6444C45.3543 37.3488 44.312 38.395 44.312 39.6819C44.312 40.9688 45.3543 42.015 46.6444 42.015H51.823L23.3204 88.791C15.8094 89.4873 8.98345 93.4573 4.66122 99.6402V88.6744H9.32602C10.6125 88.6744 11.6584 87.6317 11.6584 86.3412C11.6584 85.0507 10.6125 84.0081 9.32602 84.0081H4.66122V79.3418H9.32602C10.6125 79.3418 11.6584 78.2955 11.6584 77.0086C11.6584 75.7181 10.6125 74.6755 9.32602 74.6755H4.66122V70.0092H9.32602C10.6125 70.0092 11.6584 68.9629 11.6584 67.676C11.6584 66.3855 10.6125 65.3429 9.32602 65.3429H4.66122V60.6766H9.32602C10.6125 60.6766 11.6584 59.634 11.6584 58.3434C11.6584 57.0529 10.6125 56.0103 9.32602 56.0103H4.66122V51.344H9.32602C10.6125 51.344 11.6584 50.2977 11.6584 49.0108C11.6584 47.724 10.6125 46.6777 9.32602 46.6777H4.66122V42.0114H9.32602C10.6125 42.0114 11.6584 40.9688 11.6584 39.6783C11.6584 38.3877 10.6125 37.3451 9.32602 37.3451H4.66122V32.6788H9.32602C10.6125 32.6788 11.6584 31.6325 11.6584 30.3457C11.6584 29.0588 10.6125 28.0125 9.32602 28.0125H4.66122V23.3462H9.32602C10.6125 23.3462 11.6584 22.2999 11.6584 21.0131C11.6584 19.7225 10.6125 18.6799 9.32602 18.6799H4.66122V7.96931L10.0039 13.3356C10.9186 14.2506 12.4019 14.2506 13.3166 13.3356C14.2313 12.4205 14.2313 10.9368 13.3166 10.0218L3.98701 0.68916C3.32009 0.0183799 2.3106 -0.185774 1.43595 0.178781C0.561301 0.543335 -0.00721948 1.40004 6.92657e-05 2.34788V114.339C6.92657e-05 115.626 1.046 116.672 2.33247 116.672C3.62258 116.672 4.66486 115.626 4.66486 114.339C4.64664 104.35 11.6657 95.7285 21.4472 93.7271C31.2323 91.7257 41.0685 96.8951 44.9753 106.089C48.8784 115.283 45.7697 125.957 37.5371 131.608C29.3045 137.262 18.2292 136.333 11.0534 129.384C10.1533 128.524 8.73563 128.524 7.83547 129.384C7.37263 129.825 7.11024 130.438 7.11024 131.076C7.11024 131.714 7.37263 132.326 7.83547 132.767C12.6132 137.397 19.0018 139.993 25.6528 140C145.633 140 137.819 140 138.493 139.814C139.674 139.318 140.236 137.966 139.754 136.781C139.499 136.176 140.079 136.781 129.937 126.679C129.022 125.764 127.539 125.764 126.624 126.679C125.709 127.594 125.709 129.078 126.624 129.993L131.988 135.337H121.281V130.671C121.281 129.384 120.235 128.338 118.949 128.338C117.662 128.338 116.616 129.384 116.616 130.671V135.337H111.952V130.671C111.952 129.384 110.909 128.338 109.619 128.338C108.333 128.338 107.287 129.384 107.287 130.671V135.337H102.622V130.671C102.622 129.384 101.576 128.338 100.29 128.338C98.9994 128.338 97.9571 129.384 97.9571 130.671V135.337H93.2924V130.671C93.2924 129.384 92.2464 128.338 90.96 128.338C89.6699 128.338 88.6276 129.384 88.6276 130.671V135.337H83.9628V130.671C83.9628 129.384 82.9205 128.338 81.6304 128.338C80.3403 128.338 79.298 129.384 79.298 130.671V135.337H74.6332V130.671C74.6332 129.384 73.5872 128.338 72.3008 128.338C71.0143 128.338 69.9684 129.384 69.9684 130.671V135.337H65.3036V130.671C65.3036 129.384 64.2613 128.338 62.9712 128.338C61.6847 128.338 60.6388 129.384 60.6388 130.671V135.337H55.974V130.671C55.974 129.384 54.9281 128.338 53.6416 128.338C52.3551 128.338 51.3092 129.384 51.3092 130.671V135.337H40.3469C46.5751 131.036 50.584 124.207 51.3092 116.672H83.9628C84.5823 116.676 85.18 116.432 85.621 115.998L97.9608 103.632V107.343C97.9608 108.634 99.0031 109.676 100.293 109.676C101.58 109.676 102.626 108.63 102.626 107.343V100.344H123.617C124.674 100.391 125.632 99.7204 125.95 98.7106L139.944 54.3807C140.206 53.1996 139.525 52.0111 138.37 51.6466C137.218 51.282 135.975 51.8617 135.512 52.9809L121.912 95.6738H100.29C99.67 95.6702 99.0723 95.9144 98.635 96.3519L83.0079 112.006H51.3092C50.7662 106.126 48.2115 100.614 44.0788 96.3956L65.8174 70.6617Z" fill="#237BFF"/>
<path d="M18.6556 37.345C17.3655 37.345 16.3232 38.3912 16.3232 39.6781C16.3232 40.965 17.3655 42.0113 18.6556 42.0113H23.3204C24.6105 42.0113 25.6528 40.9686 25.6528 39.6781C25.6528 38.3876 24.6105 37.345 23.3204 37.345H18.6556Z" fill="#237BFF"/>
<path d="M32.65 37.345C31.3599 37.345 30.3176 38.3912 30.3176 39.6781C30.3176 40.965 31.3636 42.0113 32.65 42.0113H37.3148C38.6049 42.0113 39.6472 40.9686 39.6472 39.6781C39.6472 38.3876 38.6013 37.345 37.3148 37.345H32.65Z" fill="#237BFF"/>
<path d="M100.29 114.339C98.9995 114.339 97.9572 115.382 97.9572 116.672V121.339C97.9572 122.625 98.9995 123.672 100.29 123.672C101.576 123.672 102.622 122.629 102.622 121.339V116.672C102.622 115.382 101.576 114.339 100.29 114.339Z" fill="#237BFF"/>
</svg>
