<svg width="265" height="480" viewBox="0 0 265 480" fill="none" xmlns="http://www.w3.org/2000/svg">
<g opacity="0.3">
<path d="M798.904 857.466V857.309V597.394H798.769L697.805 547.43L647.233 572.491V423.389L546.111 373.448V373.583L495.561 398.486V261.846L394.439 212.041L344.048 236.944V87.9991H343.89L242.926 38.2158H242.768L192.219 63.1187V-73.5432L103.852 -117.106L15.3287 -73.5432V644.901L65.9008 669.804L748.354 1006.41L836.878 962.825V876.127L798.904 857.466Z" fill="#E3E7F2"/>
<path d="M192.218 -73.543V63.119L154.402 81.7793V576.728H154.267L104.461 601.473L103.852 601.18V-29.7994L192.218 -73.543Z" fill="#7FACFA"/>
<path d="M255.524 131.743V676.024H255.366L154.402 626.083V81.7793L255.524 131.743Z" fill="url(#paint0_linear)" stroke="#D4E1F4"/>
<path d="M343.89 87.9992L255.524 131.743L154.402 81.7791L192.219 63.1188L242.768 38.2158H242.926L343.89 87.9992Z" fill="#E3E7F2"/>
<path d="M760.186 1000.64L748.354 1006.41L65.9008 669.804L15.3287 644.901V-73.5432L103.852 -117.106L146.357 -96.1474L69.687 -58.3535V660.091L120.259 684.994L760.186 1000.64Z" fill="white"/>
<path d="M30.5184 -73.4751V123.9V595.299H0.161621V123.9V-73.4751H30.5184Z" fill="white"/>
<path d="M0.162124 595.276V595.298V644.834C0.162124 650.603 3.45247 655.899 8.63589 658.446L741.639 1020C741.842 1020.11 742.09 1020.07 742.292 1020.16C744.185 1021.04 746.236 1021.53 748.332 1021.58H748.355H748.377C750.451 1021.53 752.501 1021.04 754.395 1020.16C754.62 1020.07 754.845 1020.11 755.071 1020L843.527 976.37C844.113 975.987 844.676 975.558 845.195 975.085C846.164 974.499 847.065 973.801 847.876 973.012C849.003 971.457 850.017 969.812 850.919 968.121C851.257 967.085 851.46 966.003 851.572 964.921C851.775 964.223 851.91 963.479 852.001 962.758V876.082C852.001 875.902 851.933 875.744 851.933 875.563C851.91 875.135 851.798 874.752 851.753 874.324C851.595 872.904 851.212 871.507 850.648 870.177C850.536 869.907 850.558 869.614 850.423 869.343C850.333 869.163 850.175 869.05 850.062 868.893C849.251 867.338 848.169 865.94 846.885 864.768C846.592 864.498 846.231 864.34 845.916 864.115C845.172 863.484 844.361 862.943 843.504 862.47L814.049 847.956V597.349C814.049 597.191 813.981 597.056 813.981 596.898C813.936 596.335 813.846 595.772 813.756 595.231C813.598 594.014 813.26 592.819 812.809 591.67C812.652 591.309 812.697 590.904 812.516 590.543C812.404 590.295 812.178 590.16 812.043 589.935C811.277 588.515 810.285 587.23 809.113 586.126C807.942 585.337 806.77 584.526 805.598 583.737L704.453 533.841C704.138 533.683 703.822 533.728 703.507 533.593C699.788 532.218 695.687 532.218 691.968 533.593C691.653 533.728 691.315 533.706 690.999 533.841L662.423 547.949V423.412C662.423 423.231 662.355 423.074 662.355 422.893C662.333 422.488 662.242 422.105 662.175 421.676C662.017 420.211 661.634 418.792 661.048 417.44C660.935 417.192 660.958 416.921 660.845 416.673C660.755 416.516 660.597 416.403 660.53 416.245C659.718 414.668 658.614 413.225 657.284 412.031C657.036 411.828 656.766 411.693 656.518 411.512C655.729 410.836 654.873 410.273 653.971 409.777L552.85 359.881C552.534 359.723 552.196 359.746 551.881 359.633C549.988 359.002 548.004 358.619 546.021 358.484C544.038 358.664 542.077 359.07 540.207 359.723C539.959 359.836 539.688 359.813 539.44 359.926L510.819 374.034V261.869C510.819 261.644 510.729 261.441 510.729 261.216C510.729 260.99 510.661 260.788 510.639 260.562C510.481 258.872 510.053 257.204 509.332 255.649C509.264 255.491 509.286 255.334 509.196 255.176C509.151 255.063 509.039 255.018 508.993 254.906C508.137 253.215 506.965 251.683 505.545 250.421L505.388 250.308C504.464 249.497 503.427 248.798 502.323 248.235L401.178 198.451C400.931 198.339 400.683 198.361 400.435 198.249C396.739 196.896 392.705 196.829 388.986 198.068C388.58 198.226 388.152 198.203 387.747 198.406L359.17 212.492V88.0896C359.17 87.8192 359.08 87.5488 359.057 87.2783C359.057 87.1431 359.012 87.0079 358.99 86.8501C358.832 85.0923 358.381 83.3795 357.638 81.7794C357.57 81.6216 357.593 81.4639 357.525 81.3061C357.48 81.216 357.39 81.1484 357.322 81.0582C356.488 79.3905 355.339 77.9031 353.942 76.6636C353.739 76.4833 353.468 76.3706 353.266 76.1903C352.477 75.5142 351.62 74.9283 350.696 74.455L249.575 24.5364C249.259 24.3787 248.921 24.4012 248.606 24.2885C246.758 23.6575 244.819 23.2744 242.881 23.1166C240.921 23.2518 239.005 23.6349 237.157 24.266C236.819 24.4012 236.436 24.3787 236.098 24.5364L207.409 38.6894V-73.4753C207.409 -73.5879 207.364 -73.7006 207.364 -73.8358C207.319 -74.4218 207.228 -74.9852 207.116 -75.5712C206.958 -76.8107 206.62 -78.0276 206.147 -79.1995C206.011 -79.5376 206.034 -79.8982 205.876 -80.2137C205.764 -80.4391 205.561 -80.5517 205.448 -80.7771C204.659 -82.2871 203.6 -83.6393 202.338 -84.8112C202.022 -85.0816 201.662 -85.2394 201.346 -85.4873C200.603 -86.1183 199.791 -86.6592 198.935 -87.1324L110.501 -130.718C110.231 -130.853 109.915 -130.831 109.645 -130.944C105.881 -132.341 101.735 -132.363 97.9935 -130.944C97.7005 -130.831 97.385 -130.853 97.092 -130.696L8.61335 -87.0874C8.09501 -86.7493 7.62174 -86.3662 7.17101 -85.9605C5.36808 -84.9013 3.88066 -83.4139 2.82144 -81.611C2.41578 -81.1602 2.0552 -80.687 1.71715 -80.1912C1.55939 -79.8982 1.60447 -79.5601 1.46925 -79.2672C1.08612 -78.2755 0.815686 -77.2614 0.657929 -76.2247C0.4551 -75.3232 0.31988 -74.3993 0.274807 -73.4753H0.162124V-12.7391C0.162124 -4.35551 6.96818 2.45055 15.3518 2.45055C23.7354 2.45055 30.5415 -4.35551 30.5415 -12.7391V-49.0456L88.6183 -20.379V601.18L88.6408 601.271V601.811C88.6408 607.581 91.9312 612.877 97.1146 615.424L147.619 640.349L147.642 640.372L248.741 690.245H248.786L602.565 864.746L602.588 864.768L703.71 914.664L703.8 914.687L733.143 929.156V981.981L30.5189 635.391V595.298V108.733C30.5189 100.35 23.7129 93.5435 15.3293 93.5435C6.94564 93.5435 0.139587 100.35 0.139587 108.733L0.162124 595.276ZM103.808 -100.181L157.941 -73.4527L103.808 -46.7694L49.6525 -73.4753L103.808 -100.181ZM242.836 55.0735L309.612 88.0446L255.457 114.75L188.658 81.8019L242.836 55.0735ZM349.57 251.119C349.885 250.984 350.156 250.826 350.448 250.691L394.417 229.011L461.284 261.914L407.106 288.643L340.307 255.694L349.57 251.119ZM546.156 390.463L612.932 423.434L558.799 450.14L492.001 417.169L546.156 390.463ZM653.093 586.419L653.228 586.351L697.715 564.401L764.468 597.349L710.336 624.055L643.582 591.107L653.093 586.419ZM821.621 953.337L763.522 981.981V929.133L821.621 900.466V953.337ZM624.471 615.514L695.236 650.445V876.014L624.471 841.105V615.514ZM748.941 902.495L745.335 900.714L798.837 874.324L802.443 876.104L748.941 902.495ZM783.67 847.956L725.615 876.6V650.355L783.67 621.711V847.956ZM594.114 826.118L593.664 825.893L594.114 825.667V826.118ZM169.547 106.209L240.29 141.118V651.572L169.547 616.663V106.209ZM321.196 649.364C321.196 649.251 321.196 649.161 321.196 649.048V280.101L391.938 314.988V726.371L321.196 691.484V649.364ZM472.867 441.576L543.61 476.508V801.215L472.867 766.306V441.576ZM442.488 751.319L442.127 751.139L442.488 750.959V751.319ZM290.839 676.498L288.788 675.484L290.839 674.469V676.498ZM139.168 601.699L138.672 601.451L139.168 601.203V601.699ZM602.588 577.472C602.43 577.539 602.34 577.697 602.182 577.787C601.889 577.945 601.551 578.035 601.258 578.216C600.041 578.982 598.96 579.928 598.013 581.01C597.81 581.235 597.675 581.506 597.472 581.731C596.548 582.903 595.805 584.21 595.264 585.608C595.128 585.946 594.971 586.261 594.858 586.622C594.385 588.064 594.114 589.597 594.092 591.107V791.818L573.967 801.756V476.485L632.043 447.841V562.936L602.588 577.472ZM450.939 403.557C450.827 403.625 450.759 403.737 450.646 403.782C450.331 403.963 449.97 404.03 449.655 404.233C448.415 405.022 447.311 405.991 446.364 407.095C446.184 407.298 446.071 407.523 445.891 407.749C444.944 408.943 444.201 410.25 443.637 411.67C443.502 412.031 443.344 412.346 443.232 412.707C442.758 414.149 442.511 415.637 442.488 417.147V717.086L422.295 727.07V314.988L480.44 286.322V389.043L450.939 403.557ZM299.29 242.082C299.155 242.15 299.065 242.285 298.93 242.375C298.614 242.533 298.299 242.623 297.983 242.803C296.766 243.57 295.662 244.539 294.715 245.62C294.513 245.846 294.377 246.094 294.197 246.319C293.273 247.491 292.507 248.821 291.966 250.218C291.831 250.556 291.673 250.872 291.56 251.232C291.087 252.674 290.839 254.184 290.817 255.717V640.642L270.624 650.581V141.118L328.813 112.429V227.524L299.29 242.082ZM147.642 68.1898C147.484 68.2574 147.416 68.3926 147.259 68.4828C146.966 68.6405 146.628 68.7307 146.335 68.911C145.118 69.6772 144.013 70.6463 143.067 71.7281C142.864 71.9534 142.729 72.2013 142.548 72.4267C141.624 73.5986 140.858 74.9283 140.317 76.3255C140.182 76.6636 140.024 76.9791 139.912 77.3397C139.438 78.782 139.19 80.292 139.168 81.8244V567.353L118.998 577.337V-20.4016L177.052 -49.0456V53.6762L147.642 68.1898Z" fill="#428DFF"/>
<path d="M15.3513 63.1644C21.4813 63.1419 27.0253 59.4459 29.3691 53.7667C31.7129 48.0874 30.4508 41.5744 26.1238 37.2023L23.8476 35.3768C22.9912 34.7908 22.0897 34.3401 21.1207 34.0021C20.2643 33.5739 19.3403 33.2584 18.3937 33.1006C17.4021 32.9203 16.388 32.8302 15.3513 32.8076C11.3398 32.8527 7.48602 34.4303 4.5788 37.2023C0.905337 40.7405 -0.717298 45.9239 0.296849 50.9496C1.311 55.9527 4.80417 60.122 9.58193 61.9474C11.3849 62.7362 13.3681 63.1419 15.3513 63.1644Z" fill="#428DFF"/>
</g>
<defs>
<linearGradient id="paint0_linear" x1="31.1145" y1="205.066" x2="388.559" y2="215.416" gradientUnits="userSpaceOnUse">
<stop stop-color="#D4E1F4"/>
<stop offset="0.1717" stop-color="#D4E1F4"/>
<stop offset="0.2" stop-color="#D4E1F4"/>
<stop offset="0.2001" stop-color="#DAE4F4"/>
<stop offset="0.2007" stop-color="#EBEBF4"/>
<stop offset="0.2014" stop-color="#F6F1F4"/>
<stop offset="0.2023" stop-color="#FDF4F4"/>
<stop offset="0.205" stop-color="#FFF5F4"/>
<stop offset="0.2522" stop-color="#FFF5F4"/>
<stop offset="0.26" stop-color="#D4E1F4"/>
<stop offset="0.3974" stop-color="#D4E1F4"/>
<stop offset="0.42" stop-color="#D4E1F4"/>
<stop offset="0.4201" stop-color="#DAE4F4"/>
<stop offset="0.4207" stop-color="#EBEBF4"/>
<stop offset="0.4214" stop-color="#F6F1F4"/>
<stop offset="0.4223" stop-color="#FDF4F4"/>
<stop offset="0.425" stop-color="#FFF5F4"/>
<stop offset="0.4894" stop-color="#FFF5F4"/>
<stop offset="0.5" stop-color="#F9F2F4"/>
<stop offset="0.5001" stop-color="#E8EBF4"/>
<stop offset="0.5003" stop-color="#DDE5F4"/>
<stop offset="0.5005" stop-color="#D6E2F4"/>
<stop offset="0.501" stop-color="#D4E1F4"/>
<stop offset="0.7062" stop-color="#D4E1F4"/>
<stop offset="0.74" stop-color="#D4E1F4"/>
<stop offset="0.741" stop-color="#FFF5F4"/>
<stop offset="0.8346" stop-color="#FFF5F4"/>
<stop offset="0.85" stop-color="#FFF5F4"/>
<stop offset="0.851" stop-color="#D4E1F4"/>
</linearGradient>
</defs>
</svg>
