<svg width="378" height="480" viewBox="0 0 378 480" fill="none" xmlns="http://www.w3.org/2000/svg">
<g opacity="0.3">
<path d="M531.904 857.466V857.309V597.394H531.769L430.805 547.43L380.233 572.491V423.389L279.111 373.448V373.583L228.561 398.486V261.846L127.439 212.041L77.0476 236.944V87.9991H76.8899L-24.0741 38.2158H-24.2319L-74.7815 63.1187V-73.5432L-163.148 -117.106L-251.671 -73.5432V644.901L-201.099 669.804L481.354 1006.41L569.878 962.825V876.127L531.904 857.466Z" fill="#E3E7F2"/>
<path d="M140.06 305.568V750.891L39.0959 700.928V255.627L140.06 305.568Z" fill="#E3E7F2"/>
<path d="M291.867 467.11V825.577L190.61 775.636V417.169L291.867 467.11Z" fill="#A4C2F7"/>
<path d="M76.8899 87.9992L-11.4761 131.743L-112.598 81.7791L-74.7814 63.1188L-24.2318 38.2158H-24.0741L76.8899 87.9992Z" fill="#E3E7F2"/>
<path d="M77.0478 87.9985V236.943L39.0961 255.626V650.061L-11.476 674.964V131.742L76.89 87.9985H77.0478Z" fill="#7FACFA"/>
<path d="M77.0251 237.103V236.944V237.103Z" fill="url(#paint0_linear)"/>
<path d="M77.0251 237.103V236.944" stroke="#D4E1F4"/>
<path d="M228.561 261.846L140.06 305.567L39.0959 255.626L77.0476 236.943L127.439 212.04L228.561 261.846Z" fill="#E3E7F2"/>
<path d="M228.561 261.846V398.486L190.61 417.168V726.438L140.804 751.183L140.195 750.89H140.06V305.567L228.561 261.846Z" fill="#7FACFA"/>
<path d="M380.232 423.39V572.492L342.281 591.152V801.283L292.34 825.893L291.866 825.578V467.111L380.232 423.39Z" fill="#7FACFA"/>
<path d="M380.233 423.389L291.867 467.11L190.61 417.169L228.561 398.486L279.111 373.583V373.448L380.233 423.389Z" fill="#E3E7F2"/>
<path d="M493.186 1000.64L481.354 1006.41L-201.099 669.804L-251.671 644.901V-73.5432L-163.148 -117.106L-120.643 -96.1474L-197.313 -58.3535V660.091L-146.741 684.994L493.186 1000.64Z" fill="white"/>
<path d="M-266.838 595.276V595.298V644.834C-266.838 650.603 -263.548 655.899 -258.364 658.446L474.639 1020C474.842 1020.11 475.09 1020.07 475.292 1020.16C477.185 1021.04 479.236 1021.53 481.332 1021.58H481.355H481.377C483.451 1021.53 485.501 1021.04 487.395 1020.16C487.62 1020.07 487.845 1020.11 488.071 1020L576.527 976.37C577.113 975.987 577.676 975.558 578.195 975.085C579.164 974.499 580.065 973.801 580.876 973.012C582.003 971.457 583.017 969.812 583.919 968.121C584.257 967.085 584.46 966.003 584.572 964.921C584.775 964.223 584.91 963.479 585.001 962.758V876.082C585.001 875.902 584.933 875.744 584.933 875.563C584.91 875.135 584.798 874.752 584.753 874.324C584.595 872.904 584.212 871.507 583.648 870.177C583.536 869.907 583.558 869.614 583.423 869.343C583.333 869.163 583.175 869.05 583.062 868.893C582.251 867.338 581.169 865.94 579.885 864.768C579.592 864.498 579.231 864.34 578.916 864.115C578.172 863.484 577.361 862.943 576.504 862.47L547.049 847.956V597.349C547.049 597.191 546.981 597.056 546.981 596.898C546.936 596.335 546.846 595.772 546.756 595.231C546.598 594.014 546.26 592.819 545.809 591.67C545.652 591.309 545.697 590.904 545.516 590.543C545.404 590.295 545.178 590.16 545.043 589.935C544.277 588.515 543.285 587.23 542.113 586.126C540.942 585.337 539.77 584.526 538.598 583.737L437.453 533.841C437.138 533.683 436.822 533.728 436.507 533.593C432.788 532.218 428.687 532.218 424.968 533.593C424.653 533.728 424.315 533.706 423.999 533.841L395.423 547.949V423.412C395.423 423.231 395.355 423.074 395.355 422.893C395.333 422.488 395.242 422.105 395.175 421.676C395.017 420.211 394.634 418.792 394.048 417.44C393.935 417.192 393.958 416.921 393.845 416.673C393.755 416.516 393.597 416.403 393.53 416.245C392.718 414.668 391.614 413.225 390.284 412.031C390.036 411.828 389.766 411.693 389.518 411.512C388.729 410.836 387.873 410.273 386.971 409.777L285.85 359.881C285.534 359.723 285.196 359.746 284.881 359.633C282.988 359.002 281.004 358.619 279.021 358.484C277.038 358.664 275.077 359.07 273.207 359.723C272.959 359.836 272.688 359.813 272.44 359.926L243.819 374.034V261.869C243.819 261.644 243.729 261.441 243.729 261.216C243.729 260.99 243.661 260.788 243.639 260.562C243.481 258.872 243.053 257.204 242.332 255.649C242.264 255.491 242.286 255.334 242.196 255.176C242.151 255.063 242.039 255.018 241.993 254.906C241.137 253.215 239.965 251.683 238.545 250.421L238.388 250.308C237.464 249.497 236.427 248.798 235.323 248.235L134.178 198.451C133.931 198.339 133.683 198.361 133.435 198.249C129.739 196.896 125.705 196.829 121.986 198.068C121.58 198.226 121.152 198.203 120.747 198.406L92.1702 212.492V88.0896C92.1702 87.8192 92.08 87.5488 92.0575 87.2783C92.0575 87.1431 92.0124 87.0079 91.9899 86.8501C91.8321 85.0923 91.3814 83.3795 90.6377 81.7794C90.5701 81.6216 90.5926 81.4639 90.525 81.3061C90.4799 81.216 90.3898 81.1484 90.3222 81.0582C89.4883 79.3905 88.339 77.9031 86.9417 76.6636C86.7389 76.4833 86.4684 76.3706 86.2656 76.1903C85.4768 75.5142 84.6204 74.9283 83.6964 74.455L-17.4253 24.5364C-17.7408 24.3787 -18.0789 24.4012 -18.3944 24.2885C-20.2424 23.6575 -22.1805 23.2744 -24.1187 23.1166C-26.0794 23.2518 -27.995 23.6349 -29.843 24.266C-30.181 24.4012 -30.5641 24.3787 -30.9022 24.5364L-59.5913 38.6894V-73.4753C-59.5913 -73.5879 -59.6364 -73.7006 -59.6364 -73.8358C-59.6814 -74.4218 -59.7716 -74.9852 -59.8842 -75.5712C-60.042 -76.8107 -60.3801 -78.0276 -60.8533 -79.1995C-60.9885 -79.5376 -60.966 -79.8982 -61.1238 -80.2137C-61.2365 -80.4391 -61.4393 -80.5517 -61.552 -80.7771C-62.3408 -82.2871 -63.4 -83.6393 -64.662 -84.8112C-64.9775 -85.0816 -65.3381 -85.2394 -65.6536 -85.4873C-66.3973 -86.1183 -67.2087 -86.6592 -68.065 -87.1324L-156.499 -130.718C-156.769 -130.853 -157.085 -130.831 -157.355 -130.944C-161.119 -132.341 -165.265 -132.363 -169.006 -130.944C-169.299 -130.831 -169.615 -130.853 -169.908 -130.696L-258.387 -87.0874C-258.905 -86.7493 -259.378 -86.3662 -259.829 -85.9605C-261.632 -84.9013 -263.119 -83.4139 -264.179 -81.611C-264.584 -81.1602 -264.945 -80.687 -265.283 -80.1912C-265.441 -79.8982 -265.396 -79.5601 -265.531 -79.2672C-265.914 -78.2755 -266.184 -77.2614 -266.342 -76.2247C-266.545 -75.3232 -266.68 -74.3993 -266.725 -73.4753H-266.838V-12.7391C-266.838 -4.35551 -260.032 2.45055 -251.648 2.45055C-243.265 2.45055 -236.459 -4.35551 -236.459 -12.7391V-49.0456L-178.382 -20.379V601.18L-178.359 601.271V601.811C-178.359 607.581 -175.069 612.877 -169.885 615.424L-119.381 640.349L-119.358 640.372L-18.2592 690.245H-18.2141L335.565 864.746L335.588 864.768L436.71 914.664L436.8 914.687L466.143 929.156V981.981L-236.481 635.391V595.298V108.733C-236.481 100.35 -243.287 93.5435 -251.671 93.5435C-260.054 93.5435 -266.86 100.35 -266.86 108.733L-266.838 595.276ZM-163.192 -100.181L-109.059 -73.4527L-163.192 -46.7694L-217.347 -73.4753L-163.192 -100.181ZM-24.1637 55.0735L42.6122 88.0446L-11.5432 114.75L-78.3417 81.8019L-24.1637 55.0735ZM82.5696 251.119C82.8851 250.984 83.1555 250.826 83.4485 250.691L127.417 229.011L194.284 261.914L140.106 288.643L73.307 255.694L82.5696 251.119ZM279.156 390.463L345.932 423.434L291.799 450.14L225.001 417.169L279.156 390.463ZM386.093 586.419L386.228 586.351L430.715 564.401L497.468 597.349L443.336 624.055L376.582 591.107L386.093 586.419ZM554.621 953.337L496.522 981.981V929.133L554.621 900.466V953.337ZM357.471 615.514L428.236 650.445V876.014L357.471 841.105V615.514ZM481.941 902.495L478.335 900.714L531.837 874.324L535.443 876.104L481.941 902.495ZM516.67 847.956L458.615 876.6V650.355L516.67 621.711V847.956ZM327.114 826.118L326.664 825.893L327.114 825.667V826.118ZM-97.4528 106.209L-26.7104 141.118V651.572L-97.4528 616.663V106.209ZM54.196 649.364C54.196 649.251 54.196 649.161 54.196 649.048V280.101L124.938 314.988V726.371L54.196 691.484V649.364ZM205.867 441.576L276.61 476.508V801.215L205.867 766.306V441.576ZM175.488 751.319L175.127 751.139L175.488 750.959V751.319ZM23.8392 676.498L21.7884 675.484L23.8392 674.469V676.498ZM-127.832 601.699L-128.328 601.451L-127.832 601.203V601.699ZM335.588 577.472C335.43 577.539 335.34 577.697 335.182 577.787C334.889 577.945 334.551 578.035 334.258 578.216C333.041 578.982 331.96 579.928 331.013 581.01C330.81 581.235 330.675 581.506 330.472 581.731C329.548 582.903 328.805 584.21 328.264 585.608C328.128 585.946 327.971 586.261 327.858 586.622C327.385 588.064 327.114 589.597 327.092 591.107V791.818L306.967 801.756V476.485L365.043 447.841V562.936L335.588 577.472ZM183.939 403.557C183.827 403.625 183.759 403.737 183.646 403.782C183.331 403.963 182.97 404.03 182.655 404.233C181.415 405.022 180.311 405.991 179.364 407.095C179.184 407.298 179.071 407.523 178.891 407.749C177.944 408.943 177.201 410.25 176.637 411.67C176.502 412.031 176.344 412.346 176.232 412.707C175.758 414.149 175.511 415.637 175.488 417.147V717.086L155.295 727.07V314.988L213.44 286.322V389.043L183.939 403.557ZM32.2904 242.082C32.1552 242.15 32.065 242.285 31.9298 242.375C31.6143 242.533 31.2988 242.623 30.9833 242.803C29.7663 243.57 28.662 244.539 27.7155 245.62C27.5127 245.846 27.3774 246.094 27.1972 246.319C26.2732 247.491 25.5069 248.821 24.966 250.218C24.8308 250.556 24.6731 250.872 24.5604 251.232C24.0871 252.674 23.8392 254.184 23.8167 255.717V640.642L3.62387 650.581V141.118L61.8134 112.429V227.524L32.2904 242.082ZM-119.358 68.1898C-119.516 68.2574 -119.584 68.3926 -119.741 68.4828C-120.034 68.6405 -120.372 68.7307 -120.665 68.911C-121.882 69.6772 -122.987 70.6463 -123.933 71.7281C-124.136 71.9534 -124.271 72.2013 -124.452 72.4267C-125.376 73.5986 -126.142 74.9283 -126.683 76.3255C-126.818 76.6636 -126.976 76.9791 -127.088 77.3397C-127.562 78.782 -127.81 80.292 -127.832 81.8244V567.353L-148.002 577.337V-20.4016L-89.9481 -49.0456V53.6762L-119.358 68.1898Z" fill="#428DFF"/>
</g>
<defs>
<linearGradient id="paint0_linear" x1="-nan" y1="-nan" x2="-nan" y2="-nan" gradientUnits="userSpaceOnUse">
<stop stop-color="#D4E1F4"/>
<stop offset="0.1717" stop-color="#D4E1F4"/>
<stop offset="0.2" stop-color="#D4E1F4"/>
<stop offset="0.2001" stop-color="#DAE4F4"/>
<stop offset="0.2007" stop-color="#EBEBF4"/>
<stop offset="0.2014" stop-color="#F6F1F4"/>
<stop offset="0.2023" stop-color="#FDF4F4"/>
<stop offset="0.205" stop-color="#FFF5F4"/>
<stop offset="0.2522" stop-color="#FFF5F4"/>
<stop offset="0.26" stop-color="#D4E1F4"/>
<stop offset="0.3974" stop-color="#D4E1F4"/>
<stop offset="0.42" stop-color="#D4E1F4"/>
<stop offset="0.4201" stop-color="#DAE4F4"/>
<stop offset="0.4207" stop-color="#EBEBF4"/>
<stop offset="0.4214" stop-color="#F6F1F4"/>
<stop offset="0.4223" stop-color="#FDF4F4"/>
<stop offset="0.425" stop-color="#FFF5F4"/>
<stop offset="0.4894" stop-color="#FFF5F4"/>
<stop offset="0.5" stop-color="#F9F2F4"/>
<stop offset="0.5001" stop-color="#E8EBF4"/>
<stop offset="0.5003" stop-color="#DDE5F4"/>
<stop offset="0.5005" stop-color="#D6E2F4"/>
<stop offset="0.501" stop-color="#D4E1F4"/>
<stop offset="0.7062" stop-color="#D4E1F4"/>
<stop offset="0.74" stop-color="#D4E1F4"/>
<stop offset="0.741" stop-color="#FFF5F4"/>
<stop offset="0.8346" stop-color="#FFF5F4"/>
<stop offset="0.85" stop-color="#FFF5F4"/>
<stop offset="0.851" stop-color="#D4E1F4"/>
</linearGradient>
</defs>
</svg>
