<svg width="198" height="49" viewBox="0 0 198 49" fill="none" xmlns="http://www.w3.org/2000/svg">
<rect x="1.5" y="1.5" width="195" height="46" stroke="url(#paint0_linear)" stroke-width="3"/>
<path d="M18.1816 35H13.7578V13.8623H18.1816V35ZM25.9307 35H21.6973V13.8623H25.3887L35.2617 27.6318H35.3789V13.8623H39.6123V35H35.9502L26.0625 21.1572H25.9307V35ZM54.2314 35H48.8994L41.7949 13.8623H46.7461L51.5801 30.4443H51.6826L56.5166 13.8623H61.3359L54.2314 35ZM77.5078 31.3379V35H63.5039V13.8623H77.5078V17.5098H67.9277V22.6074H76.9658V26.0059H67.9277V31.3379H77.5078ZM79.9102 28.9795H84.1729C84.2705 29.8389 84.7246 30.5371 85.5352 31.0742C86.3555 31.6016 87.3564 31.8652 88.5381 31.8652C89.71 31.8652 90.6621 31.6162 91.3945 31.1182C92.1367 30.6104 92.5078 29.9658 92.5078 29.1846C92.5078 28.501 92.2344 27.9492 91.6875 27.5293C91.1406 27.1094 90.2275 26.7578 88.9482 26.4746L86.1943 25.874C82.3174 25.0439 80.3789 23.0762 80.3789 19.9707C80.3789 18.0371 81.1309 16.4746 82.6348 15.2832C84.1484 14.0918 86.0918 13.4961 88.4648 13.4961C90.9062 13.4961 92.8545 14.0771 94.3096 15.2393C95.7646 16.3916 96.5117 17.9297 96.5508 19.8535H92.4053C92.3369 18.9648 91.9414 18.2666 91.2188 17.7588C90.5059 17.2412 89.5928 16.9824 88.4795 16.9824C87.3857 16.9824 86.502 17.2217 85.8281 17.7002C85.1641 18.1787 84.832 18.8086 84.832 19.5898C84.832 20.2344 85.1006 20.7568 85.6377 21.1572C86.1846 21.5576 87.0684 21.8994 88.2891 22.1826L90.8525 22.7246C92.9717 23.1738 94.5146 23.877 95.4814 24.834C96.4482 25.7812 96.9316 27.0605 96.9316 28.6719C96.9316 30.7227 96.1602 32.3535 94.6172 33.5645C93.0742 34.7656 90.9893 35.3662 88.3623 35.3662C85.8135 35.3662 83.7822 34.7998 82.2686 33.667C80.7646 32.5244 79.9785 30.9619 79.9102 28.9795ZM109.207 35H104.783V17.5098H98.6016V13.8623H115.403V17.5098H109.207V35Z" fill="white"/>
<path d="M127.4 35H122.977V17.5098H116.795V13.8623H133.597V17.5098H127.4V35ZM140.467 35H136.043V13.8623H140.467V35ZM166.365 13.8623V35H162.425V20.7324H162.308L156.565 34.7949H153.782L148.04 20.7324H147.923V35H143.982V13.8623H149.109L155.115 28.8477H155.232L161.238 13.8623H166.365ZM183.885 31.3379V35H169.881V13.8623H183.885V17.5098H174.305V22.6074H183.343V26.0059H174.305V31.3379H183.885Z" fill="#237BFF"/>
<defs>
<linearGradient id="paint0_linear" x1="0" y1="23.9024" x2="198" y2="23.9024" gradientUnits="userSpaceOnUse">
<stop offset="0.588442" stop-color="white"/>
<stop offset="0.588542" stop-color="#237BFF"/>
</linearGradient>
</defs>
</svg>
